<svg width="261" height="88" viewBox="0 0 261 88" fill="none" xmlns="http://www.w3.org/2000/svg">
<path d="M246.656 2H13.8556C7.30794 2 2 7.30704 2 13.8536V74.1992C2 80.7458 7.30794 86.0528 13.8556 86.0528H246.656C253.204 86.0528 258.512 80.7458 258.512 74.1992V13.8536C258.512 7.30704 253.204 2 246.656 2Z" fill="black"/>
<path d="M246.656 2H13.8556C7.30794 2 2 7.30704 2 13.8536V74.1992C2 80.7458 7.30794 86.0528 13.8556 86.0528H246.656C253.204 86.0528 258.512 80.7458 258.512 74.1992V13.8536C258.512 7.30704 253.204 2 246.656 2Z" stroke="#A6A6A6" stroke-width="3"/>
<path d="M54.1742 45.6711C54.2003 43.6884 54.7399 41.7446 55.7425 40.0202C56.7451 38.2958 58.1782 36.847 59.9087 35.8086C58.8094 34.2761 57.3592 33.0151 55.6733 32.1253C53.9873 31.2356 52.1121 30.7419 50.1966 30.6834C46.1103 30.2647 42.1489 33.0703 40.0665 33.0703C37.944 33.0703 34.7379 30.725 31.2856 30.7944C29.0526 30.8648 26.8763 31.4986 24.9689 32.6341C23.0614 33.7697 21.4877 35.3682 20.4012 37.2739C15.6952 45.2274 19.2056 56.9165 23.7136 63.3456C25.9691 66.4937 28.6051 70.0102 32.0544 69.8855C35.4297 69.7489 36.6903 67.7846 40.7644 67.7846C44.8008 67.7846 45.9836 69.8855 49.5028 69.8062C53.1246 69.7489 55.4065 66.6441 57.583 63.4662C59.2035 61.223 60.4506 58.7438 61.2779 56.1205C59.1737 55.2518 57.378 53.7977 56.1148 51.9394C54.8515 50.0813 54.1767 47.9012 54.1742 45.6711Z" fill="white"/>
<path d="M47.5276 26.4553C49.5023 24.1412 50.4752 21.167 50.2397 18.1641C47.2226 18.4734 44.4357 19.8808 42.4344 22.1061C41.4558 23.1931 40.7062 24.4579 40.2288 25.8279C39.7513 27.198 39.5549 28.6463 39.6513 30.0904C41.1603 30.1056 42.6532 29.7863 44.0175 29.1567C45.3818 28.527 46.582 27.6034 47.5276 26.4553Z" fill="white"/>
<path d="M80.2275 18.5398H84.6892C88.5446 18.5398 90.4202 20.8319 90.4202 24.9896C90.4202 29.1475 88.5256 31.4679 84.6892 31.4679H80.2275V18.5398ZM82.3779 20.3488V29.6589H84.4525C87.0101 29.6589 88.213 28.1152 88.213 25.0181C88.213 21.9021 87.0006 20.3488 84.4525 20.3488H82.3779ZM97.2215 21.2864C99.8361 21.2864 101.664 22.9817 101.664 25.7947V27.0923C101.664 29.9999 99.8361 31.6384 97.2215 31.6384C94.5692 31.6384 92.7599 30.0189 92.7599 27.1017V25.8041C92.7599 23.067 94.5976 21.2864 97.2215 21.2864ZM97.231 22.9817C95.7344 22.9817 94.8818 24.232 94.8818 25.9083V27.026C94.8818 28.7023 95.6775 29.9431 97.231 29.9431C98.7657 29.9431 99.5519 28.7118 99.5519 27.026V25.9083C99.5519 24.232 98.7278 22.9817 97.231 22.9817ZM117.105 21.4569L114.471 31.4679H112.331L110.237 24.0804H110.18L108.125 31.4679H105.974L103.227 21.4569H105.491L107.102 29.0907H107.196L109.214 21.4569H111.194L113.268 29.0907H113.363L115.002 21.4569H117.105ZM119.189 31.4679V21.4569H121.254V23.2564H121.358C121.614 22.4704 122.343 21.3054 124.37 21.3054C126.388 21.3054 127.743 22.423 127.743 24.7055V31.4679H125.64V25.3212C125.64 23.7962 124.844 23.0954 123.66 23.0954C122.106 23.0954 121.292 24.2888 121.292 25.9083V31.4679H119.189ZM130.925 31.4679V17.8579H133.028V31.4679H130.925ZM140.247 21.2864C142.861 21.2864 144.689 22.9817 144.689 25.7947V27.0923C144.689 29.9999 142.861 31.6384 140.247 31.6384C137.594 31.6384 135.785 30.0189 135.785 27.1017V25.8041C135.785 23.067 137.623 21.2864 140.247 21.2864ZM140.257 22.9817C138.76 22.9817 137.907 24.232 137.907 25.9083V27.026C137.907 28.7023 138.702 29.9431 140.257 29.9431C141.79 29.9431 142.577 28.7118 142.577 27.026V25.9083C142.577 24.232 141.753 22.9817 140.257 22.9817ZM150.136 31.6194C148.194 31.6194 146.858 30.426 146.858 28.5602C146.858 26.7891 148.09 25.5959 150.401 25.5959H152.93V24.6582C152.93 23.5122 152.201 22.9723 151.046 22.9723C149.909 22.9723 149.397 23.4459 149.236 24.1088H147.237C147.361 22.4325 148.62 21.3054 151.112 21.3054C153.253 21.3054 155.024 22.1956 155.024 24.6866V31.4679H153.025V30.1703H152.93C152.485 30.9376 151.615 31.6194 150.136 31.6194ZM150.789 29.9904C151.984 29.9904 152.93 29.1759 152.93 28.0867V27.007H150.733C149.511 27.007 148.971 27.6226 148.971 28.456C148.971 29.4979 149.842 29.9904 150.789 29.9904ZM161.503 21.3243C162.915 21.3243 163.994 21.9495 164.383 22.9628H164.487V17.8579H166.591V31.4679H164.545V29.8673H164.44C164.137 30.8807 162.934 31.6005 161.475 31.6005C159.173 31.6005 157.677 29.962 157.677 27.3196V25.6052C157.677 22.9628 159.202 21.3243 161.503 21.3243ZM162.091 23.048C160.689 23.048 159.817 24.0899 159.817 25.9083V27.007C159.817 28.8349 160.699 29.8768 162.138 29.8768C163.559 29.8768 164.487 28.8444 164.487 27.1396V25.6242C164.487 24.0804 163.474 23.048 162.091 23.048ZM178.138 21.2864C180.752 21.2864 182.58 22.9817 182.58 25.7947V27.0923C182.58 29.9999 180.752 31.6384 178.138 31.6384C175.485 31.6384 173.676 30.0189 173.676 27.1017V25.8041C173.676 23.067 175.514 21.2864 178.138 21.2864ZM178.146 22.9817C176.65 22.9817 175.798 24.232 175.798 25.9083V27.026C175.798 28.7023 176.593 29.9431 178.146 29.9431C179.681 29.9431 180.468 28.7118 180.468 27.026V25.9083C180.468 24.232 179.644 22.9817 178.146 22.9817ZM185.289 31.4679V21.4569H187.354V23.2564H187.458C187.714 22.4704 188.444 21.3054 190.471 21.3054C192.488 21.3054 193.843 22.423 193.843 24.7055V31.4679H191.74V25.3212C191.74 23.7962 190.945 23.0954 189.761 23.0954C188.207 23.0954 187.392 24.2888 187.392 25.9083V31.4679H185.289ZM201.98 21.5232V19.0229H204.035V21.5232H206.28V23.1712H204.035V28.4844C204.035 29.5737 204.443 29.8768 205.57 29.8768C205.855 29.8768 206.234 29.8578 206.394 29.8389V31.4489C206.224 31.4774 205.522 31.5342 205.049 31.5342C202.614 31.5342 201.952 30.6629 201.952 28.655V23.1712H200.427V21.5232H201.98ZM208.933 31.4679V17.8579H211.027V23.2564H211.131C211.348 22.5461 212.164 21.3054 214.171 21.3054C216.122 21.3054 217.516 22.4325 217.516 24.7149V31.4679H215.422V25.3306C215.422 23.8057 214.579 23.0954 213.386 23.0954C211.88 23.0954 211.027 24.2793 211.027 25.9083V31.4679H208.933ZM224.572 31.6384C221.844 31.6384 220.148 29.962 220.148 27.1396V25.7852C220.148 22.9438 222.006 21.2864 224.45 21.2864C226.96 21.2864 228.731 23.0291 228.731 25.7852V26.9596H222.233V27.4521C222.233 28.8918 223.085 29.9526 224.563 29.9526C225.663 29.9526 226.42 29.4316 226.562 28.8065H228.617C228.494 29.962 227.272 31.6384 224.572 31.6384ZM222.233 25.5864H226.676V25.4538C226.676 23.9478 225.794 22.9438 224.458 22.9438C223.124 22.9438 222.233 23.9478 222.233 25.4538V25.5864Z" fill="white"/>
<path d="M83.2777 67.5733H78.9014L87.8057 41.7173H92.6177L101.503 67.5733H96.9563L94.6639 60.4132H85.589L83.2777 67.5733ZM90.2307 46.1876H90.0601L86.5552 57.1173H93.6976L90.2307 46.1876ZM113.581 67.8575C110.986 67.8575 109.016 66.6262 107.955 64.7888H107.803V74.2221H103.597V47.5514H107.689V50.4875H107.841C108.94 48.5743 110.986 47.2862 113.676 47.2862C118.166 47.2862 121.368 50.6769 121.368 56.6626V58.4432C121.368 64.3911 118.204 67.8575 113.581 67.8575ZM112.615 64.3911C115.286 64.3911 117.105 62.2506 117.105 58.2158V56.8142C117.105 52.931 115.4 50.7148 112.539 50.7148C109.603 50.7148 107.765 53.1015 107.765 56.7952V58.2158C107.765 62.0043 109.622 64.3911 112.615 64.3911ZM134.962 67.8575C132.366 67.8575 130.396 66.6262 129.335 64.7888H129.183V74.2221H124.977V47.5514H129.07V50.4875H129.221C130.32 48.5743 132.366 47.2862 135.056 47.2862C139.547 47.2862 142.749 50.6769 142.749 56.6626V58.4432C142.749 64.3911 139.585 67.8575 134.962 67.8575ZM133.995 64.3911C136.667 64.3911 138.485 62.2506 138.485 58.2158V56.8142C138.485 52.931 136.78 50.7148 133.92 50.7148C130.983 50.7148 129.145 53.1015 129.145 56.7952V58.2158C129.145 62.0043 131.002 64.3911 133.995 64.3911ZM151.463 60.3943H155.67C155.86 62.6294 157.83 64.5425 161.487 64.5425C164.84 64.5425 166.829 62.9704 166.829 60.5269C166.829 58.5569 165.503 57.4961 162.736 56.8331L158.494 55.7723C155.158 54.9957 152.165 53.0068 152.165 48.8017C152.165 43.8577 156.485 41.1489 161.505 41.1489C166.526 41.1489 170.712 43.8577 170.807 48.688H166.677C166.487 46.4906 164.801 44.6722 161.448 44.6722C158.494 44.6722 156.485 46.074 156.485 48.4796C156.485 50.1654 157.659 51.3778 160.066 51.927L164.291 52.9689C168.174 53.916 171.13 55.7534 171.13 60.148C171.13 65.2246 167.019 68.0847 161.164 68.0847C153.965 68.0847 151.558 63.8796 151.463 60.3943ZM176.254 47.5514V42.6834H180.384V47.5514H184.288V50.9231H180.384V61.6066C180.384 63.7849 181.2 64.3911 183.454 64.3911C183.814 64.3911 184.155 64.3911 184.4 64.3532V67.5733C184.06 67.6302 183.265 67.7059 182.412 67.7059C177.543 67.7059 176.198 65.9633 176.198 61.9475V50.9231H173.431V47.5514H176.254ZM195.646 47.2105C201.405 47.2105 204.531 51.2641 204.531 56.7195V58.3295C204.531 63.9743 201.424 67.9143 195.646 67.9143C189.868 67.9143 186.722 63.9743 186.722 58.3295V56.7195C186.722 51.283 189.886 47.2105 195.646 47.2105ZM195.646 50.5822C192.519 50.5822 190.966 53.1394 190.966 56.7763V58.3106C190.966 61.8906 192.5 64.5236 195.646 64.5236C198.79 64.5236 200.306 61.9096 200.306 58.3106V56.7763C200.306 53.1204 198.772 50.5822 195.646 50.5822ZM208.084 67.5733V47.5514H212.29V50.1844H212.441C212.953 48.9343 214.45 47.2672 217.235 47.2672C217.784 47.2672 218.258 47.3051 218.656 47.3809V51.0936C218.296 50.9989 217.556 50.942 216.856 50.942C213.483 50.942 212.346 53.0257 212.346 55.7155V67.5733H208.084ZM228.858 67.9143C223.496 67.9143 220.086 64.3722 220.086 58.4432V56.4163C220.086 50.8285 223.42 47.2105 228.687 47.2105C234.03 47.2105 237.251 50.961 237.251 56.6058V58.519H224.236V58.9926C224.236 62.3643 226.054 64.5994 228.915 64.5994C231.056 64.5994 232.514 63.5386 233.026 61.8149H237.023C236.418 65.054 233.803 67.9143 228.858 67.9143ZM224.236 55.5829H233.14V55.545C233.14 52.7037 231.377 50.4685 228.707 50.4685C225.997 50.4685 224.236 52.7037 224.236 55.545V55.5829Z" fill="white"/>
</svg>
