<svg width="22" height="22" viewBox="0 0 22 22" fill="none" xmlns="http://www.w3.org/2000/svg">
<path d="M21.6089 11.1916C21.6089 16.6503 17.5637 21.1631 12.3088 21.8954C11.8174 21.9636 11.3147 21.9992 10.8044 21.9992C10.2154 21.9992 9.63701 21.9522 9.07373 21.8614C3.9293 21.0329 0 16.5708 0 11.1916C0 5.22241 4.83781 0.383179 10.8052 0.383179C16.7726 0.383179 21.6104 5.22241 21.6104 11.1916H21.6089Z" fill="#1D174F"/>
<path d="M12.3086 9.06201V11.4165H15.2204L14.7593 14.5881H12.3086V21.8955C11.8173 21.9636 11.3146 21.9992 10.8043 21.9992C10.2153 21.9992 9.63686 21.9523 9.07359 21.8614V14.5881H6.38818V11.4165H9.07359V8.53568C9.07359 6.74842 10.5219 5.29892 12.3094 5.29892V5.30044C12.3147 5.30044 12.3192 5.29892 12.3245 5.29892H15.2212V8.04191H13.3284C12.7659 8.04191 12.3094 8.49857 12.3094 9.06126L12.3086 9.06201Z" fill="white"/>
</svg>
