<svg width="261" height="88" viewBox="0 0 261 88" fill="none" xmlns="http://www.w3.org/2000/svg">
<path d="M246.656 2H13.8556C7.30794 2 2 7.30703 2 13.8536V74.1992C2 80.7458 7.30794 86.0528 13.8556 86.0528H246.656C253.204 86.0528 258.512 80.7458 258.512 74.1992V13.8536C258.512 7.30703 253.204 2 246.656 2Z" fill="black"/>
<path d="M246.656 2H13.8556C7.30794 2 2 7.30703 2 13.8536V74.1992C2 80.7458 7.30794 86.0528 13.8556 86.0528H246.656C253.204 86.0528 258.512 80.7458 258.512 74.1992V13.8536C258.512 7.30703 253.204 2 246.656 2Z" stroke="#A6A6A6" stroke-width="3"/>
<path d="M39.3022 42.8668L18.3604 65.5913C18.3623 65.5954 18.3623 65.6009 18.3643 65.605C19.0075 68.0734 21.2104 69.8883 23.8264 69.8883C24.8728 69.8883 25.8543 69.5986 26.6961 69.092L26.7631 69.0522L50.3346 55.1454L39.3022 42.8668Z" fill="#EA4335"/>
<path d="M60.4873 38.9968L60.4677 38.9831L50.2908 32.9513L38.8257 43.383L50.3321 55.1441L60.4539 49.1723C62.2281 48.1907 63.4337 46.2783 63.4337 44.0749C63.4337 41.8825 62.2458 39.9798 60.4873 38.9968Z" fill="#FBBC04"/>
<path d="M18.3598 22.4601C18.2339 22.9347 18.167 23.4334 18.167 23.9483V64.1045C18.167 64.6193 18.2339 65.1191 18.3617 65.5913L40.0214 43.4475L18.3598 22.4601Z" fill="#4285F4"/>
<path d="M39.4565 44.0255L50.2942 32.9472L26.7503 18.9904C25.8946 18.4656 24.8954 18.164 23.8275 18.164C21.2114 18.164 19.0046 19.9839 18.3613 22.4535C18.3613 22.4556 18.3594 22.4575 18.3594 22.4596L39.4565 44.0255Z" fill="#34A853"/>
<path d="M94.9266 25.2003C94.9266 27.3555 94.2871 29.0725 93.0081 30.3511C91.5711 31.8742 89.6813 32.6357 87.339 32.6357C85.0972 32.6357 83.2003 31.8599 81.6483 30.308C80.0962 28.7563 79.3203 26.8455 79.3203 24.5752C79.3203 22.3051 80.0962 20.3941 81.6483 18.8424C83.2003 17.2907 85.0972 16.5148 87.339 16.5148C88.4743 16.5148 89.5448 16.7159 90.5507 17.1183C91.5567 17.5205 92.383 18.0881 93.0297 18.8209L91.607 20.2433C91.1328 19.6686 90.5149 19.2232 89.7533 18.9071C89.0059 18.5766 88.2012 18.4114 87.339 18.4114C85.6577 18.4114 84.2349 18.9933 83.071 20.1571C81.9213 21.3354 81.3465 22.808 81.3465 24.5752C81.3465 26.3425 81.9213 27.8152 83.071 28.9934C84.2349 30.1573 85.6577 30.7391 87.339 30.7391C88.8766 30.7391 90.1556 30.308 91.1759 29.446C92.1962 28.5839 92.7854 27.3986 92.9434 25.89H87.339V24.0365H94.8188C94.8906 24.4388 94.9266 24.8267 94.9266 25.2003ZM106.346 16.8596V18.7562H99.3193V23.6486H105.657V25.502H99.3193V30.3943H106.346V32.291H97.3362V16.8596H106.346ZM114.279 18.7562V32.291H112.296V18.7562H107.984V16.8596H118.59V18.7562H114.279ZM127.379 32.291H125.396V16.8596H127.379V32.291ZM135.75 18.7562V32.291H133.767V18.7562H129.456V16.8596H140.062V18.7562H135.75ZM161.557 24.5752C161.557 26.8598 160.795 28.7707 159.272 30.308C157.735 31.8599 155.852 32.6357 153.625 32.6357C151.383 32.6357 149.5 31.8599 147.978 30.308C146.453 28.7707 145.693 26.8598 145.693 24.5752C145.693 22.2907 146.453 20.3799 147.978 18.8424C149.5 17.2907 151.383 16.5148 153.625 16.5148C155.867 16.5148 157.75 17.2979 159.272 18.864C160.795 20.4014 161.557 22.3051 161.557 24.5752ZM147.718 24.5752C147.718 26.3569 148.28 27.8297 149.4 28.9934C150.536 30.1573 151.943 30.7391 153.625 30.7391C155.306 30.7391 156.707 30.1573 157.828 28.9934C158.963 27.8439 159.53 26.3713 159.53 24.5752C159.53 22.7793 158.963 21.3065 157.828 20.1571C156.707 18.9933 155.306 18.4114 153.625 18.4114C151.943 18.4114 150.536 18.9933 149.4 20.1571C148.28 21.3209 147.718 22.7936 147.718 24.5752ZM165.881 32.291H163.898V16.8596H166.312L173.813 28.8641H173.9L173.813 25.89V16.8596H175.796V32.291H173.727L165.881 19.7046H165.794L165.881 22.6787V32.291Z" fill="white"/>
<path d="M202.507 68.8381H206.018V45.1059H202.507V68.8381ZM234.13 53.6545L230.106 63.9439H229.985L225.808 53.6545H222.027L228.289 68.0349L224.721 76.0344H228.38L238.034 53.6545H234.13ZM214.219 66.1418C213.067 66.1418 211.465 65.5625 211.465 64.1265C211.465 62.2965 213.461 61.5936 215.186 61.5936C216.729 61.5936 217.457 61.93 218.395 62.3871C218.122 64.585 216.246 66.1418 214.219 66.1418ZM214.642 53.1356C212.101 53.1356 209.467 54.2655 208.378 56.7695L211.495 58.0819C212.161 56.7695 213.401 56.3412 214.703 56.3412C216.519 56.3412 218.365 57.4394 218.395 59.3957V59.6387C217.759 59.2722 216.398 58.723 214.733 58.723C211.374 58.723 207.954 60.586 207.954 64.0647C207.954 67.2415 210.708 69.2883 213.794 69.2883C216.155 69.2883 217.457 68.2189 218.274 66.9655H218.395V68.7982H221.784V59.6991C221.784 55.4859 218.667 53.1356 214.642 53.1356ZM192.945 56.5443H187.951V48.409H192.945C195.569 48.409 197.059 50.6014 197.059 52.4753C197.059 54.3149 195.569 56.5443 192.945 56.5443ZM192.855 45.1059H184.442V68.8381H187.951V59.8474H192.855C196.746 59.8474 200.571 57.0029 200.571 52.4753C200.571 47.9477 196.746 45.1059 192.855 45.1059ZM146.979 66.1459C144.554 66.1459 142.523 64.0977 142.523 61.2847C142.523 58.4402 144.554 56.359 146.979 56.359C149.375 56.359 151.252 58.4402 151.252 61.2847C151.252 64.0977 149.375 66.1459 146.979 66.1459ZM151.012 54.9834H150.89C150.101 54.0362 148.587 53.1795 146.677 53.1795C142.675 53.1795 139.007 56.7256 139.007 61.2847C139.007 65.8096 142.675 69.3282 146.677 69.3282C148.587 69.3282 150.101 68.4715 150.89 67.4913H151.012V68.6555C151.012 71.7443 149.375 73.3959 146.737 73.3959C144.584 73.3959 143.25 71.8349 142.705 70.5198L139.643 71.8047C140.522 73.9464 142.857 76.5753 146.737 76.5753C150.859 76.5753 154.346 74.1289 154.346 68.1654V53.6683H151.012V54.9834ZM156.772 68.8381H160.288V45.1046H156.772V68.8381ZM165.47 61.0088C165.379 57.8897 167.865 56.2986 169.652 56.2986C171.049 56.2986 172.23 57.0015 172.624 58.0119L165.47 61.0088ZM176.383 58.3167C175.717 56.5128 173.685 53.1795 169.532 53.1795C165.41 53.1795 161.985 56.451 161.985 61.2532C161.985 65.7794 165.379 69.3282 169.926 69.3282C173.595 69.3282 175.717 67.0644 176.596 65.7492L173.868 63.9137C172.959 65.2591 171.715 66.1459 169.926 66.1459C168.138 66.1459 166.864 65.3195 166.045 63.7009L176.746 59.2337L176.383 58.3167ZM91.1328 55.6575V59.0813H99.2555C99.0127 61.0088 98.3768 62.4159 97.4077 63.3934C96.2243 64.5878 94.3748 65.9029 91.1328 65.9029C86.1296 65.9029 82.2197 61.8352 82.2197 56.7887C82.2197 51.7408 86.1296 47.6745 91.1328 47.6745C93.8309 47.6745 95.801 48.7453 97.2553 50.1209L99.6506 47.7047C97.6185 45.747 94.9222 44.2479 91.1328 44.2479C84.2819 44.2479 78.5225 49.8765 78.5225 56.7887C78.5225 63.7009 84.2819 69.3282 91.1328 69.3282C94.8301 69.3282 97.6185 68.1036 99.8011 65.8096C102.046 63.5472 102.742 60.3677 102.742 57.7964C102.742 57.0015 102.682 56.2684 102.559 55.6575H91.1328ZM111.979 66.1459C109.553 66.1459 107.461 64.1279 107.461 61.2532C107.461 58.3469 109.553 56.359 111.979 56.359C114.402 56.359 116.494 58.3469 116.494 61.2532C116.494 64.1279 114.402 66.1459 111.979 66.1459ZM111.979 53.1795C107.551 53.1795 103.944 56.5746 103.944 61.2532C103.944 65.9029 107.551 69.3282 111.979 69.3282C116.404 69.3282 120.011 65.9029 120.011 61.2532C120.011 56.5746 116.404 53.1795 111.979 53.1795ZM129.502 66.1459C127.076 66.1459 124.984 64.1279 124.984 61.2532C124.984 58.3469 127.076 56.359 129.502 56.359C131.927 56.359 134.017 58.3469 134.017 61.2532C134.017 64.1279 131.927 66.1459 129.502 66.1459ZM129.502 53.1795C125.076 53.1795 121.469 56.5746 121.469 61.2532C121.469 65.9029 125.076 69.3282 129.502 69.3282C133.927 69.3282 137.534 65.9029 137.534 61.2532C137.534 56.5746 133.927 53.1795 129.502 53.1795Z" fill="white"/>
</svg>
