<?xml version="1.0" encoding="UTF-8"?>
<svg id="Layer_2" data-name="Layer 2" xmlns="http://www.w3.org/2000/svg" viewBox="0 0 240.17 79.76">
  <defs>
    <style>
      .cls-1 {
        fill: #f15b2a;
      }

      .cls-2 {
        fill: #079247;
      }

      .cls-3 {
        fill: #fff;
      }

      .cls-4 {
        fill: #0f6196;
      }

      .cls-5 {
        fill: #919495;
      }

      .cls-6 {
        fill: #bd232f;
      }

      .cls-7 {
        fill: #909294;
      }

      .cls-8 {
        fill: #342519;
      }
    </style>
  </defs>
  <g id="Layer_1-2" data-name="Layer 1">
    <g>
      <g>
        <path class="cls-1" d="M159.34,74.68c18.88-22.47,50.56-27.62,78.3-28.71-.8.03-2.24-.05-3.26,0-27.79,1.09-59.51,6.2-78.42,28.72.45-.54,2.9.57,3.38,0h0Z"/>
        <path class="cls-3" d="M167.59,74.28c15.53-18.46,41.57-22.67,64.37-23.54-.65.03-1.84-.04-2.68,0-22.84.88-48.91,5.06-64.47,23.55.37-.44,2.38.47,2.78,0h0Z"/>
        <path class="cls-2" d="M169.33,79.61c17.04-20.39,45.72-25.12,70.83-26.17-.72.03-2.03-.04-2.95,0-25.16,1.05-53.87,5.75-70.94,26.18.41-.49,2.63.51,3.06,0h0Z"/>
        <g>
          <path class="cls-8" d="M151.76,35.64c-.05-.39-.09-.78-.12-1.17,0-.4,0-.8.02-1.21l.15-1.19.27-1.18c.12-.38.25-.77.39-1.15.17-.37.32-.74.5-1.11.21-.35.41-.71.62-1.05.24-.34.47-.66.74-.99.24-.28.56-.62.87-.87.31-.27.65-.51,1-.73.7-.44,1.48-.77,2.31-.92.82-.15,1.73-.09,2.46.36.18.11.36.21.51.36l.23.21c.09.09.13.15.2.23l.19.22.18.25c.13.17.22.35.32.53.38.72.58,1.56.49,2.41-.04.21-.07.41-.13.64l-.09.28c-.04.1-.08.21-.13.31-.18.39-.41.76-.7,1.08-.57.66-1.48,1.16-2.46,1.11-.12,0-.24-.02-.36-.03h-.09s-.02-.02-.02-.02h-.06s-.04-.02-.04-.02l-.14-.03-.07-.02-.1-.04-.2-.08c-.13-.06-.24-.13-.35-.2-.44-.32-.76-.79-.9-1.27-.15-.48-.17-.98-.1-1.45.03-.24.09-.47.17-.7v-.04s.02-.02.02-.02h0s.02-.05.02-.05l.03-.07.06-.13.11-.27c.39-.83.89-1.5,1.52-2.11.15-.15.34-.28.5-.42.17-.13.37-.25.55-.37.19-.11.4-.2.6-.3l.04-.02h0s.06-.03.06-.03h.02s.07-.03.07-.03l.14-.04.28-.09c.16-.07.44-.09.65-.13l.34-.05c.11,0,.22,0,.33,0,.22,0,.43-.02.66.02.22.03.45.07.67.11h-.05c.2.03.34.07.49.13.15.05.29.12.43.18.14.07.28.14.41.22.13.09.27.16.38.26.12.1.25.19.35.3.11.11.23.21.32.33.1.12.2.23.29.36l.25.38c.07.13.13.27.2.4.07.13.11.27.16.41.04.14.1.28.13.42l.08.43c.05.28.05.57.08.85,0,.28-.03.57-.04.84h-.14s-.15-.8-.15-.8c-.08-.26-.13-.52-.23-.77l-.15-.37c-.05-.12-.12-.23-.18-.35-.06-.11-.11-.23-.19-.33-.07-.1-.14-.21-.22-.31l-.25-.28c-.08-.09-.18-.17-.27-.25-.09-.09-.19-.15-.29-.23-.09-.08-.21-.13-.31-.2-.21-.12-.43-.22-.66-.31-.11-.04-.23-.07-.34-.1-.11-.03-.24-.05-.31-.06h-.05c-.17-.01-.33-.03-.49-.04-.16-.02-.34.02-.5.03-.08,0-.17.01-.25.02l-.23.05c-.16.04-.29.04-.48.12l-.27.1-.14.05-.07.02h-.02s.06-.02.04,0h0s-.03.02-.03.02c-.14.08-.29.15-.43.24-.13.1-.28.19-.41.29-.13.11-.26.22-.38.34-.5.46-.92,1.07-1.22,1.63-.19.39-.29.6-.35.92-.06.3-.05.6,0,.86.06.27.19.47.37.63.05.03.1.07.15.1.02.01.04.02.06.03l.03.02.07.02.14.05h.03s0,.01,0,.01c-.01,0,.04.01-.03,0h.01s.05.01.05.01c.07.01.15.04.22.04.59.07,1.21-.15,1.73-.59.26-.22.49-.49.67-.78l.13-.22.12-.26.16-.49c.16-.69.05-1.45-.26-2.12-.08-.17-.16-.33-.27-.48l-.15-.23c-.06-.07-.12-.15-.19-.22-.06-.07-.14-.16-.19-.2l-.21-.17c-.13-.13-.29-.21-.45-.3-.64-.34-1.4-.29-2.07-.06-.68.23-1.3.64-1.87,1.1-.28.24-.56.47-.82.73-.27.27-.48.49-.75.8-.21.27-.44.58-.66.87l-.6.94-.53.98c-.15.34-.29.69-.45,1.03l-.38,1.06-.32,1.09-.24,1.11c-.06.39-.11.77-.18,1.16h-.14Z"/>
          <path class="cls-8" d="M167.32,21.03c.17-.47.59-.83,1.07-1.01.48-.18,1.04-.23,1.56,0,.52.24.87.73,1.04,1.24.17.52.19,1.07.11,1.6-.08.53-.27,1.05-.58,1.52-.31.46-.8.9-1.47,1-.67.1-1.29-.2-1.72-.52-.49-.38-.81-.83-1.07-1.32-.51-.98-.72-2.06-.64-3.16.04-.54.17-1.13.44-1.64.29-.54.66-.99,1.16-1.34.49-.34,1.1-.58,1.75-.58.65,0,1.32.26,1.78.67.48.4.79.9,1.04,1.4.24.5.4,1.02.52,1.53l-1.32.31c-.08-.39-.03-.7.03-.98.07-.28.16-.53.26-.76.11-.24.23-.46.36-.68.08-.12.13-.2.24-.35.07-.09.13-.17.26-.3.23-.23.45-.39.71-.53.26-.14.54-.24.83-.29.58-.11,1.22-.01,1.75.3.27.15.48.34.7.58l.05.07.08.11c.05.08.08.13.12.2.07.13.12.25.17.37.19.49.29.96.38,1.43.09.47.15.93.2,1.39l.13,1.36-1.16.07-.02-.95c0-.33,0-.67.03-1.01.05-.68.16-1.36.38-2.03.12-.33.26-.67.44-.97.19-.31.42-.61.69-.86.53-.52,1.21-.86,1.91-1,.7-.15,1.43-.1,2.09.08.67.19,1.29.52,1.81.95.26.22.5.46.7.73.21.27.37.54.54.83.33.57.59,1.18.71,1.81-.21-.61-.57-1.15-.94-1.66-.19-.25-.39-.51-.61-.72-.22-.22-.45-.42-.71-.59-1.01-.68-2.3-.93-3.4-.61-.55.16-1.04.47-1.41.87-.19.21-.34.43-.48.68-.14.26-.24.52-.33.8-.17.56-.25,1.16-.28,1.77-.01.3-.01.61,0,.92l.05.98-1.16.07-.15-1.36c-.06-.44-.12-.88-.21-1.3-.09-.42-.19-.84-.34-1.2-.04-.09-.08-.17-.12-.24-.02-.03-.05-.08-.06-.09l-.02-.03-.05-.07c-.09-.08-.23-.21-.36-.27-.27-.14-.58-.18-.89-.11-.15.03-.31.08-.45.16-.14.07-.29.19-.38.28-.04.03-.11.12-.19.21-.02.03-.1.14-.14.21-.1.17-.19.35-.27.52-.08.18-.14.36-.18.53-.04.16-.04.31-.02.37l-1.32.31c-.11-.44-.25-.86-.43-1.25-.18-.38-.41-.73-.68-.96-.27-.24-.58-.36-.91-.37-.33,0-.68.12-1,.33-.31.21-.6.52-.78.84-.2.36-.3.74-.35,1.17-.09.85.06,1.77.41,2.56.17.39.43.76.71,1,.33.28.67.44.99.41.32-.01.66-.23.92-.56.26-.33.45-.74.55-1.17.11-.43.13-.89.04-1.32-.09-.43-.33-.82-.69-1.04-.36-.22-.86-.26-1.31-.14-.45.11-.9.37-1.13.81Z"/>
          <path class="cls-8" d="M185.48,18.55s.39-.42,1.07-1.16c.33-.37.73-.82,1.15-1.34.41-.53.86-1.14,1.21-1.84.17-.35.33-.72.4-1.1.07-.36.1-.81.03-1.13-.03-.17-.09-.3-.18-.41-.08-.11-.2-.2-.36-.25-.33-.11-.81-.07-1.26.1-.9.34-1.75,1.16-2,2.2-.03.13-.06.26-.07.39v.1s-.02.02-.02.02c0,0,0,.02,0,0h0s0,.07,0,.07v.21c-.02.29.01.56.03.82.08.54.22,1.07.45,1.55.24.48.54.9.91,1.23.37.32.8.53,1.24.65.44.13.93.1,1.4.05.24-.06.47-.1.7-.17l.35-.12.17-.06.09-.03c-.08.03-.02,0-.03.01h.01s.02-.02.02-.02l.05-.02.18-.09c.06-.03.12-.06.15-.08.07-.06.14-.09.22-.16.16-.12.31-.27.45-.42.27-.32.49-.69.67-1.09.36-.8.58-1.66.72-2.46.15-.81.22-1.58.27-2.26.05-.68.07-1.28.09-1.78.03-.99.02-1.57.02-1.57l.13-.02s.19.55.39,1.55c.19,1,.41,2.44.31,4.23-.07.89-.2,1.87-.61,2.89-.2.51-.48,1.02-.89,1.48-.2.23-.43.45-.69.64-.12.1-.29.19-.44.28-.08.05-.15.08-.21.1l-.18.08-.13.06-.11.03-.21.06-.43.13c-.29.07-.6.11-.9.16-.62.03-1.28.03-1.91-.21-.63-.22-1.2-.6-1.62-1.1-.41-.51-.69-1.08-.87-1.67-.33-1.19-.34-2.37-.1-3.54.32-1.15,1.07-2.13,2.08-2.75.51-.3,1.1-.53,1.79-.44.34.05.7.2.97.45.27.26.44.58.53.89.33,1.23-.12,2.29-.56,3.09-.48.8-1.04,1.42-1.56,1.91-.52.5-1.02.87-1.44,1.16-.42.29-.76.5-1,.63-.24.13-.37.2-.37.2l-.08-.11Z"/>
          <path class="cls-8" d="M201.75,14.15s.03-.28.16-.78c.15-.5.4-1.24.99-2.06.29-.41.69-.83,1.21-1.18.27-.17.55-.33.87-.46l.12-.05s.02-.01.08-.03l.06-.02c.08-.02.14-.05.24-.06.21-.04.41-.06.62-.05.83.02,1.66.54,2.12,1.3.47.76.64,1.74.4,2.69-.23.95-.87,1.79-1.66,2.37-.79.61-1.74.95-2.7,1.17-.53.12-1.05.16-1.59.13-.27-.03-.54-.05-.81-.14-.13-.04-.27-.07-.4-.12l-.39-.18c-.5-.26-.98-.64-1.28-1.17-.3-.51-.44-1.16-.27-1.77.33-1.26,1.72-1.83,2.8-1.66,1.1.13,2.12.5,3.13.85,1.02.35,2.04.71,3.08.93,1.03.2,2.14.24,2.95-.27.8-.52,1.2-1.5,1.31-2.47.13-.98-.04-1.99-.46-2.84-.21-.43-.48-.82-.79-1.16-.32-.34-.7-.62-1.1-.86-.81-.46-1.74-.7-2.69-.77-.94-.07-1.9-.02-2.83.11-.91.15-1.88.35-2.78.53-1.82.39-3.53.8-5.11,1.21-1.59.39-3.04.77-4.38,1.01-1.33.24-2.55.37-3.55.16-1.01-.2-1.66-.76-1.99-1.17-.16-.21-.28-.38-.34-.49-.07-.12-.11-.17-.11-.17l.11-.07s.04.05.13.15c.08.1.21.24.39.41.36.33.98.74,1.88.81.89.07,2.01-.12,3.27-.48,1.26-.36,2.68-.83,4.25-1.32,1.57-.48,3.29-.99,5.13-1.42.93-.22,1.85-.43,2.88-.59,1.02-.14,2.09-.2,3.18-.07,1.09.12,2.21.44,3.22,1.05,1,.61,1.85,1.55,2.31,2.65.47,1.1.59,2.33.37,3.5-.12.58-.32,1.15-.63,1.68-.17.26-.34.5-.57.73-.12.12-.24.23-.35.3l-.08.06-.04.03s-.04.03-.04.03h-.03s-.2.13-.2.13c-.55.3-1.17.39-1.75.38-.58,0-1.14-.12-1.68-.26-1.08-.28-2.09-.68-3.1-1.03-.5-.18-1.01-.35-1.52-.49-.5-.14-1.01-.25-1.51-.27-.25,0-.49,0-.72.05-.12.02-.21.06-.31.09-.05.02-.11.06-.17.08-.02.01-.08.04-.07.04l-.07.05c-.4.24-.64.63-.71,1.02-.13.81.49,1.58,1.26,1.86.77.3,1.68.26,2.46.06.1-.02.19-.04.3-.07l.33-.11.33-.11.16-.06s-.05.02-.01,0h.02s.04-.02.04-.02l.07-.03c.39-.16.73-.37,1.05-.59.63-.45,1.09-1.04,1.26-1.69.19-.64.11-1.32-.18-1.85-.3-.52-.77-.88-1.28-.93-.13-.01-.26-.01-.36,0-.06,0-.15.03-.22.04h-.06s-.02.02-.03.02l-.1.03c-.27.07-.52.19-.76.3-.46.25-.84.58-1.15.91-.63.66-.96,1.34-1.17,1.79-.21.46-.29.72-.29.72l-.13-.03Z"/>
          <path class="cls-8" d="M202.93,2.81s.36-.2,1.03-.46c.67-.25,1.67-.57,2.92-.7.63-.07,1.32-.1,2.05-.03.73.07,1.51.21,2.28.52.76.3,1.53.71,2.19,1.29.66.57,1.24,1.25,1.7,2l.02.03.04.07.03.07.07.14.14.27.27.54c.17.39.31.84.45,1.25.11.42.17.84.25,1.26.03.42.05.83.06,1.24-.04.4-.04.81-.1,1.19-.08.38-.13.76-.24,1.11-.19.71-.44,1.35-.72,1.91-.27.57-.57,1.06-.86,1.48-.28.42-.56.76-.79,1.04-.47.55-.79.81-.79.81,0,0,.23-.34.56-.97.17-.31.36-.7.56-1.14.2-.44.4-.96.59-1.52.19-.56.34-1.18.45-1.84.07-.33.07-.67.12-1.01.02-.34,0-.7.02-1.05-.03-.35-.07-.71-.12-1.07-.09-.35-.16-.72-.26-1.06-.13-.34-.22-.66-.38-1.01-.18-.34-.36-.69-.55-1.03-.38-.65-.85-1.23-1.39-1.71-.55-.48-1.14-.88-1.79-1.17-.64-.28-1.3-.49-1.95-.62-.65-.12-1.29-.18-1.88-.2-1.18-.03-2.19.08-2.89.18-.7.1-1.1.2-1.1.2Z"/>
          <path class="cls-8" d="M153.02,41.27c.39-.61.89-1.14,1.48-1.6.59-.43,1.29-.81,2.08-.89.2-.02.39-.04.59-.02.11,0,.18,0,.32.02.09.02.16.02.28.06.45.13.78.35,1.1.62.61.53,1.04,1.22,1.31,1.96.26.74.38,1.57.18,2.41-.1.42-.3.83-.58,1.17-.28.35-.64.62-1.02.82-.38.19-.78.32-1.18.38l-.15.03h-.04s-.06.01-.06.01h-.02s-.07,0-.07,0h-.13s-.09.01-.16,0c-.28-.01-.51-.07-.72-.14-.44-.15-.81-.43-1.1-.72-.29-.3-.53-.63-.72-.97-.37-.69-.62-1.41-.77-2.14-.15-.73-.23-1.47-.22-2.2,0-.74.07-1.47.25-2.19.18-.72.46-1.41.99-2.02.14-.12.25-.24.4-.36.17-.1.33-.24.52-.29.18-.07.36-.14.56-.16.19-.05.38-.04.57-.04.77.03,1.47.36,2.09.75,1.23.82,2.19,1.96,2.95,3.23l-.72.3c-.12-.39-.18-.74-.21-1.12-.03-.37-.03-.76.03-1.14.1-.76.39-1.51.85-2.15.46-.64,1.07-1.14,1.72-1.54.23-.12.29-.17.53-.26.21-.09.41-.14.61-.19.4-.09.82-.11,1.22-.09.81.06,1.57.32,2.24.68.34.18.66.38.96.61l.06.04.03.02h.01s.04.05.04.05l.1.08.2.17c.06.05.14.12.21.2l.22.23c.54.61.94,1.35,1.08,2.21.07.43.06.88-.04,1.31l-.03.16-.03.09v.02s-.02.03-.02.03l-.02.06-.1.24c-.13.22-.28.49-.44.63-.63.68-1.46,1.02-2.33,1.08-.44,0-.9-.02-1.34-.24-.43-.21-.85-.56-1.05-1.03-.07-.11-.09-.22-.13-.34-.03-.11-.07-.23-.08-.34l-.02-.33v-.17s0-.02,0-.02c0,.06,0-.09,0-.07h0s0-.04,0-.04v-.06s.05-.26.05-.26l.02-.13s.03-.11.05-.16c.07-.21.14-.46.24-.63.38-.74.97-1.31,1.63-1.71.66-.4,1.4-.64,2.15-.74.19-.03.37-.02.56-.03h.28c.09,0,.19,0,.28.01l.55.06.54.13c.36.07.69.23,1.03.36.33.15.63.34.95.51.29.21.58.42.86.63l.76.73-.09.1-.85-.58c-.29-.17-.6-.33-.89-.49-.32-.12-.62-.26-.94-.36-.33-.07-.63-.2-.96-.22l-.48-.06h-.49s-.24,0-.24,0l-.24.03c-.16.02-.32.03-.47.07-.62.13-1.2.4-1.7.74-.51.34-.91.82-1.12,1.33-.07.13-.07.23-.12.34,0,.03-.02.05-.03.09v.13s-.04.26-.04.26v.06s0,.03,0,.03h0s0-.11,0-.05h0s.01.1.01.1l.02.19c0,.06.04.11.05.16.02.05.03.11.06.14.08.18.25.28.43.37.18.1.44.1.69.09.51-.04,1.04-.29,1.33-.65.1-.09.09-.15.16-.21l.1-.24.02-.06v-.03s.02-.02.02-.02h0c.02-.07-.03.07-.02.06v-.09c.07-.24.08-.5.04-.75-.07-.51-.36-1.04-.72-1.48l-.13-.15s-.09-.1-.16-.16l-.19-.17-.1-.09h0s.03.02.02.01h-.01s-.02-.03-.02-.03l-.05-.04c-.25-.2-.51-.37-.78-.52-.54-.31-1.12-.52-1.69-.59-.29-.03-.57-.02-.85.03-.14.03-.28.06-.39.11-.09.01-.33.14-.41.18-.55.3-1.04.68-1.42,1.15-.39.46-.65,1.03-.79,1.63-.14.6-.13,1.28-.02,1.86l.64,3.14-1.36-2.84c-.29-.62-.65-1.21-1.07-1.75-.42-.54-.9-1.05-1.46-1.44-.55-.4-1.19-.7-1.84-.73-.16,0-.33-.01-.48.03-.16.01-.31.08-.46.14-.16.05-.26.16-.4.23-.13.1-.26.24-.39.36-.4.47-.64,1.15-.76,1.81-.11.67-.12,1.36-.05,2.04.07.68.21,1.35.41,2,.2.64.47,1.26.82,1.79.34.53.79.97,1.25,1.13.06.02.12.03.18.05.06.01.09,0,.14.02.01,0,.02,0,.04,0h.07s.13-.01.13-.01h.07s.02,0,.02,0h0c-.09,0-.02,0-.04,0h.03s.11-.03.11-.03c.3-.05.59-.14.84-.26.51-.24.87-.66,1.01-1.2.15-.54.12-1.18-.06-1.78-.18-.6-.49-1.18-.92-1.61-.21-.21-.48-.4-.7-.49-.04-.03-.15-.05-.23-.07-.03-.01-.14-.02-.21-.03-.15-.03-.31-.03-.47-.03-.63,0-1.28.24-1.87.56-.59.34-1.15.77-1.64,1.28l-.11-.08Z"/>
          <path class="cls-8" d="M188.73,26.06c0-.69.17-1.39.53-2.02.35-.64.95-1.17,1.65-1.46.09-.04.18-.07.27-.1l.14-.04c.06-.01.13-.03.19-.03.24-.02.51.02.74.14.46.24.71.64.87,1,.31.74.37,1.48.34,2.22-.04.73-.18,1.45-.46,2.15-.3.68-.73,1.39-1.48,1.82-.37.21-.77.35-1.24.35-.5.01-1.02-.28-1.27-.65-.27-.37-.37-.75-.44-1.12-.06-.37-.08-.73-.06-1.09.02-.71.15-1.39.31-2.06.18-.67.38-1.32.67-1.95.27-.63.61-1.23,1.03-1.79.43-.55.94-1.06,1.6-1.4.16-.09.33-.16.51-.22l.13-.04s.02-.01.09-.02h.08c.1-.03.2-.04.3-.04.39,0,.81.07,1.19.31.38.24.65.63.78,1.02.14.39.18.79.18,1.16,0,.76-.17,1.45-.36,2.13-.2.68-.45,1.32-.71,1.96l-1.22-.54c.15-.32.29-.52.49-.75.19-.22.42-.42.69-.57.27-.15.57-.27.88-.32.31-.04.61-.05.91,0,.23.06.41.13.56.22.16.09.29.21.41.33.23.25.39.54.5.82.22.57.24,1.14.19,1.67-.14,1.06-.56,1.98-1.07,2.81-.53.82-1.14,1.55-1.81,2.21l-.58-.96c.19-.04.34-.06.51-.08.16-.02.33-.03.49-.05.32-.02.64-.03.96-.02.32,0,.64.03.95.06.32.03.63.08.94.14.16.03.31.07.46.1.15.03.31.07.46.11.3.08.6.18.9.29.3.1.58.23.87.35.29.12.56.28.84.41l-.05.13-.45-.12c-.15-.04-.29-.08-.44-.11-.3-.06-.59-.14-.89-.18-.3-.06-.6-.09-.89-.13-.15-.02-.3-.03-.45-.05-.15-.01-.3-.03-.45-.03-.6-.03-1.19-.02-1.78.03-.29.02-.58.06-.87.11-.14.02-.29.05-.42.08-.14.03-.29.07-.39.1l-1.87.58,1.29-1.54c.56-.67,1.09-1.37,1.49-2.11.41-.73.72-1.52.78-2.26.03-.37.01-.73-.1-1.01-.05-.14-.12-.25-.2-.34-.04-.04-.08-.07-.11-.09-.04-.03-.08-.04-.06-.04-.14-.04-.3-.04-.44-.03-.14.02-.27.06-.4.13-.13.07-.25.16-.37.28-.11.11-.23.28-.28.37l-1.21-.54c.28-.59.54-1.19.75-1.79.21-.6.38-1.22.44-1.8.06-.59-.02-1.14-.37-1.43-.18-.15-.43-.24-.71-.27-.07,0-.14,0-.21,0h-.04s-.02,0-.03,0l-.11.02c-.15.03-.29.08-.43.13-.57.22-1.08.63-1.5,1.12-.43.49-.75,1.06-1.02,1.66-.25.61-.46,1.24-.56,1.88-.12.64-.15,1.3-.09,1.94.06.62.23,1.28.56,1.61.16.16.31.2.48.18.21-.03.46-.12.66-.26.4-.28.74-.76.96-1.3.24-.54.38-1.15.43-1.76.05-.6.03-1.24-.15-1.75-.09-.25-.22-.46-.35-.55-.14-.09-.28-.1-.6,0-.57.15-1.08.49-1.48.97-.39.48-.69,1.08-.85,1.72h-.14Z"/>
          <path class="cls-8" d="M187.49,41.07c.03-.87.29-1.74.75-2.51.46-.77,1.19-1.43,2.06-1.76.11-.05.22-.08.33-.12l.17-.05c.07-.01.15-.03.22-.03.28-.03.59.02.85.16.53.28.81.75,1.01,1.19.38.9.45,1.82.41,2.73-.05.91-.21,1.81-.56,2.68-.35.85-.88,1.71-1.77,2.28-.45.28-.94.45-1.51.48-.31,0-.62-.05-.91-.19-.29-.14-.52-.34-.7-.57-.35-.45-.51-.94-.61-1.41-.1-.47-.14-.93-.13-1.39.01-.91.15-1.79.36-2.65.22-.86.52-1.69.9-2.48.38-.79.86-1.54,1.42-2.21.57-.66,1.25-1.27,2.07-1.64.2-.09.42-.17.63-.23l.16-.04s.14-.03.19-.03c.12-.01.23-.02.35-.01.46.01.93.13,1.33.4.2.14.37.31.51.51.13.2.24.41.31.63.15.44.18.9.17,1.35,0,.9-.21,1.76-.44,2.6-.24.84-.54,1.66-.86,2.46l-.81-.36c.17-.38.37-.66.63-.95.26-.28.57-.52.93-.69.36-.17.76-.26,1.16-.27h.29s.07.01.07.01h.04s0,0,0,0h0s.04,0,.04,0h.02s.12.02.12.02c.08.01.25.06.35.1.1.05.21.09.3.16.38.24.66.58.85.94.19.36.3.74.36,1.12.12.76.02,1.5-.15,2.19-.18.69-.44,1.35-.76,1.96-.32.62-.69,1.2-1.08,1.76-.2.28-.41.55-.62.81-.22.26-.43.52-.66.77-.45.51-.94.97-1.43,1.43l-.79-1.21c.45-.19.87-.36,1.31-.52.43-.17.88-.31,1.31-.45.88-.28,1.77-.54,2.66-.78.45-.12.89-.23,1.34-.34l1.35-.3,1.36-.26c.45-.09.91-.15,1.37-.22.91-.15,1.83-.24,2.74-.34l1.38-.1c.46-.04.92-.05,1.38-.06.46-.01.92-.03,1.38-.03l1.38.04c.46,0,.92.04,1.37.08.46.03.91.08,1.37.12v.14s-1.37.06-1.37.06c-.45.01-.91.03-1.36.08l-1.36.11c-.45.04-.9.1-1.35.15-.45.05-.9.1-1.35.17l-1.34.2-1.33.24c-.45.07-.89.17-1.33.26-.44.1-.89.18-1.32.29l-1.32.31-1.31.35-1.3.37c-.86.25-1.72.53-2.57.82l-1.27.46c-.42.15-.84.32-1.24.48l-3.72,1.55,2.94-2.76c.46-.44.92-.88,1.35-1.34.22-.23.43-.47.64-.7.2-.24.4-.48.59-.73.38-.5.73-1.01,1.02-1.55.3-.54.54-1.1.7-1.67.16-.57.24-1.15.18-1.7-.05-.53-.27-1.04-.62-1.28-.04-.03-.09-.05-.13-.08-.05-.02-.04-.03-.12-.05l-.12-.03h-.01c.07,0,.02,0,.03,0h0s0,0,0,0h-.02s-.05,0-.05,0l-.2-.02c-.26,0-.51.04-.75.14-.24.09-.46.24-.67.43-.2.18-.39.43-.5.64l-.81-.36c.37-.76.72-1.52,1-2.31.28-.79.51-1.59.57-2.41.06-.79-.08-1.67-.71-2.11-.3-.22-.69-.32-1.09-.34-.1,0-.2,0-.29,0-.06,0-.07,0-.13.02l-.15.04c-.19.06-.38.13-.57.22-.74.35-1.37.91-1.86,1.57-.51.65-.89,1.4-1.19,2.17-.59,1.54-.9,3.22-.8,4.83.03.4.08.79.18,1.15.09.36.24.7.43.91.18.22.38.3.62.3.28,0,.63-.13.9-.29.58-.35,1.03-.98,1.33-1.69.3-.71.5-1.5.57-2.29.06-.79.03-1.61-.21-2.31-.12-.34-.31-.65-.54-.78-.23-.15-.5-.14-.91,0-.74.22-1.42.68-1.91,1.33-.49.64-.83,1.43-1,2.25h-.14Z"/>
          <path class="cls-8" d="M200.23,19.21c.12.18.24.38.33.58.09.2.19.4.26.61.07.21.16.41.21.63l.08.32c.02.11.06.22.08.33.03.22.06.44.09.67.04.22.01.45.02.68v.34c0,.11-.03.23-.05.35-.04.23-.08.46-.14.69l-1.03-.54c.13-.13.21-.18.32-.25.1-.06.21-.11.32-.15.22-.08.44-.12.67-.13l.33.02h.02s0,0,0,0c-.01,0,.14.01.08,0h0s.03.01.03.01l.06.02s.11.04.18.09c.16.08.23.17.31.25.08.08.13.17.19.25.22.35.33.72.4,1.08.08.37.08.74.07,1.1-.03.37-.09.73-.21,1.09-.1.36-.25.71-.42,1.04-.09.16-.18.33-.28.49l-.33.45c-.17.2-.21.25-.41.42-.18.16-.37.28-.61.38-.23.1-.53.16-.83.12-.3-.04-.6-.17-.8-.35-.43-.36-.64-.78-.78-1.19-.13-.41-.19-.82-.18-1.22,0-.4.05-.8.15-1.18.2-.76.57-1.49,1.13-2.03.27-.28.6-.5.94-.66.34-.17.71-.25,1.07-.28l.04.13c-.29.21-.56.4-.78.64-.22.23-.41.48-.56.75-.14.27-.27.54-.36.83-.08.29-.15.58-.18.88-.06.59-.03,1.2.12,1.71.07.25.18.47.28.57.1.09.11.12.3.09.09-.02.2-.08.29-.13.08-.03.29-.22.36-.27.24-.21.49-.42.71-.65.22-.23.43-.49.58-.77.17-.28.27-.59.33-.9.03-.32.05-.65-.05-.95-.09-.3-.25-.59-.47-.78-.06-.04-.11-.1-.17-.12-.06-.03-.12-.06-.12-.04,0,0,0,0-.06,0h-.07s-.03,0-.03,0h0c-.06,0,.08,0,.07,0h0s-.01,0-.01,0l-.19.05c-.12.05-.23.1-.32.17-.05.04-.09.07-.13.11-.03.03-.09.09-.08.09l-1.03-.54c.02-.19.04-.38.08-.57.01-.1.05-.18.05-.28l.02-.29c.01-.2.05-.39.04-.59,0-.2,0-.4.02-.6,0-.41,0-.82-.02-1.24l-.04-1.28.13-.04Z"/>
          <path class="cls-8" d="M204.72,24.96s-.05-.13-.09-.37c-.03-.25-.07-.62.05-1.1.06-.24.16-.51.34-.76.17-.27.42-.51.72-.71.16-.09.32-.19.5-.26l.13-.06.07-.03h.02s-.03,0,.04-.02h0s.03,0,.03,0c.08-.02.15-.04.31-.06.54-.07,1.1.22,1.43.62.33.4.5.85.61,1.31.11.46.13.95.07,1.43-.11.96-.55,1.99-1.42,2.66-.22.16-.45.3-.72.39-.1.04-.28.08-.42.1-.15.02-.3,0-.44-.02-.6-.14-.97-.61-1.24-1.04-.51-.92-.76-1.94-.93-2.97-.15-1.04-.18-2.11,0-3.14.09-.53.21-1.01.4-1.55.05-.12.07-.21.14-.35.07-.14.14-.29.22-.41.16-.25.36-.5.63-.71.27-.2.59-.38.95-.43.35-.05.71-.04,1,.06.62.18,1.05.55,1.41.91.7.75,1.07,1.6,1.32,2.37.23.79.32,1.52.33,2.17.01.65-.04,1.2-.12,1.65-.08.45-.17.79-.24,1.02-.07.23-.11.35-.11.35l-.13-.02s0-.13,0-.36c0-.24-.01-.58-.05-1.01-.03-.43-.1-.95-.22-1.52-.13-.57-.3-1.21-.59-1.85-.28-.63-.67-1.29-1.19-1.78-.25-.24-.55-.44-.81-.51-.27-.08-.45-.05-.68.09-.11.08-.23.19-.33.34-.06.07-.09.14-.14.21-.05.07-.1.21-.15.31-.16.36-.32.84-.44,1.28-.23.9-.41,1.86-.44,2.84-.03.97.08,1.99.54,2.81.23.4.57.75.96.77.37.03.75-.22,1.02-.52.53-.62.68-1.47.72-2.22.03-.74-.08-1.51-.39-1.91-.14-.2-.29-.29-.45-.3,0-.01-.11,0-.19.01h-.03s0,0,0,0c.07-.02.02,0,.03,0h-.01s-.05.02-.05.02l-.1.02c-.14.02-.25.08-.37.12-.46.2-.78.53-.96.88-.19.35-.27.68-.32.9-.05.23-.05.35-.05.35l-.14.02Z"/>
          <path class="cls-8" d="M213.67,25.04c-.03-.16-.06-.32-.09-.47-.03-.16-.05-.31-.04-.48-.01-.34.01-.67.05-.99,0-.08.02-.16.03-.24l.02-.12v-.03s.03-.08.03-.08l.02-.06c.06-.16.07-.29.16-.46.16-.35.34-.64.55-.92.21-.28.44-.53.69-.75.25-.23.52-.44.82-.6l.11-.06.15-.08.22-.09c.15-.05.4-.13.58-.15.38-.05.78,0,1.14.14.38.15.65.43.86.76l.1.22c.03.09.07.18.09.27.05.18.05.36.03.54-.03.36-.18.68-.34.97-.16.29-.34.56-.52.82-.35.53-.71,1.06-.86,1.54-.08.24-.08.43-.03.57.05.14.16.29.34.44h.01s.04.06.04.06c.16.18.27.34.38.51.11.17.22.34.32.52.1.17.19.36.28.55.09.19.15.39.22.58.06.2.1.4.15.61.04.2.05.42.08.63.03.21,0,.42,0,.63,0,.21-.05.42-.09.63-.02.1-.04.21-.07.31l-.11.3c-.08.2-.13.4-.25.57l-.31.53c-.12.16-.26.31-.39.46l-.2.23c-.07.07-.15.13-.23.19-.15.12-.3.25-.46.37-.16.11-.33.2-.5.3-.17.09-.34.18-.51.26l-.08-.11c.12-.15.23-.3.35-.44.11-.15.24-.27.34-.42l.29-.44.14-.22.11-.23.22-.45.16-.46c.07-.15.07-.32.11-.47l.05-.23v-.24c.02-.16.04-.31.02-.47-.02-.16,0-.31-.04-.47-.03-.16-.04-.31-.08-.47-.04-.15-.07-.31-.12-.46-.05-.15-.09-.31-.16-.46-.06-.15-.11-.31-.19-.46-.07-.15-.14-.3-.22-.44-.08-.14-.17-.3-.24-.4l.05.06c-.26-.28-.53-.66-.6-1.14-.04-.23-.02-.47.03-.69.06-.21.14-.4.24-.56.2-.33.43-.58.66-.81l.68-.66c.22-.22.42-.44.59-.68.16-.24.29-.51.31-.77.01-.13,0-.26-.05-.38-.02-.06-.05-.11-.08-.16-.03-.06-.09-.13-.13-.19-.17-.16-.39-.3-.63-.31-.24,0-.48.03-.71.13-.06.01-.1.05-.15.07-.05.03-.08.03-.15.09l-.2.13h0s0,0,0,0c.01,0-.04.02.03-.02h-.01s-.02.03-.02.03l-.04.03-.08.06c-.23.17-.45.35-.66.53-.22.18-.42.38-.61.58-.19.2-.37.43-.51.62-.08.08-.15.26-.23.38l-.03.05h0s0,.02,0,.02h0c.04-.1,0-.02.02-.05v.03s-.05.1-.05.1l-.08.21c-.12.29-.21.56-.32.84-.11.28-.17.61-.28.91h-.14Z"/>
          <path class="cls-8" d="M209.18,16.97s.18.1.51.24c.32.14.78.33,1.33.51.27.1.58.17.89.26.32.06.64.16.99.2.17.02.35.05.52.07.18,0,.36.02.54.03.36.04.72,0,1.09,0,.36-.02.73-.09,1.09-.12.35-.09.71-.15,1.05-.23.33-.11.66-.21.98-.3.31-.11.6-.23.87-.33.27-.1.53-.19.74-.31.22-.11.41-.19.58-.26.33-.14.53-.21.53-.21,0,0-.12.16-.37.43-.12.13-.27.3-.45.47-.09.09-.18.19-.29.28-.11.09-.23.17-.35.27-.25.18-.52.4-.83.58-.32.17-.66.34-1.02.52-.37.14-.77.26-1.17.39-.42.08-.84.16-1.27.19-.43,0-.87.04-1.29-.04-.21-.03-.42-.05-.62-.09-.2-.05-.4-.1-.59-.16-.2-.05-.38-.12-.56-.19-.18-.08-.36-.14-.52-.22-.32-.17-.63-.33-.88-.52-.27-.17-.48-.36-.67-.53-.19-.17-.34-.33-.46-.47-.24-.27-.34-.45-.34-.45Z"/>
          <path class="cls-8" d="M209.77,23.33s-.03-.12-.01-.32c.01-.2.06-.49.21-.81.08-.16.18-.33.33-.49.14-.16.32-.32.54-.44.22-.13.47-.21.73-.26.07,0,.13-.01.2-.02h.1s.05-.01.05-.01h.02s.01,0,.01,0h0s.05,0,.05,0c.1,0,.19.01.31.02.32.06.59.14.83.3.25.15.44.36.58.58.28.44.34.89.33,1.24,0,.18-.04.33-.07.47-.03.14-.07.25-.11.34-.08.18-.14.28-.14.28,0,0-.05-.11-.13-.28-.08-.17-.18-.41-.32-.65-.14-.24-.31-.49-.5-.64-.1-.08-.19-.14-.3-.18-.1-.05-.23-.07-.31-.09-.08-.01-.2-.02-.29-.03-.04,0,.05,0,.04,0h0s0,0,0,0h0s-.01,0-.01,0h-.03s-.05,0-.05,0h-.1c-.13,0-.26.01-.39.05-.13.03-.26.07-.39.13-.13.05-.25.13-.37.2-.23.14-.43.31-.58.42-.15.13-.23.2-.23.2Z"/>
          <path class="cls-8" d="M152.89,65.87c-.51-.72-.9-1.5-1.24-2.3-.16-.41-.32-.81-.45-1.24-.12-.42-.25-.84-.33-1.28-.09-.43-.16-.87-.21-1.32-.04-.45-.04-.89,0-1.35.06-.9.31-1.8.68-2.62.2-.41.4-.81.67-1.17.26-.37.54-.7.88-1.02.4-.29.85-.46,1.33-.49.48-.03.96.07,1.4.23.21.09.43.19.64.31.19.13.39.25.58.38l.53.44c.17.15.32.32.47.49.33.32.57.69.85,1.05.26.36.49.74.74,1.11l-1.3.34c0-.27,0-.48.03-.72.02-.23.05-.47.1-.7.05-.23.11-.47.19-.7.09-.23.18-.47.31-.7.13-.23.29-.45.49-.66.2-.2.45-.38.72-.51.13-.08.28-.1.42-.15l.11-.03h.03s.06-.02.06-.02h0s.04,0,.04,0h.08s.05-.01.11-.01c.1,0,.21,0,.29.02l.24.05c.15.05.29.1.41.17.5.27.83.64,1.13,1,.29.36.52.76.73,1.15.41.79.72,1.6.93,2.45l-.13.05c-.49-.71-.98-1.4-1.51-2.04-.26-.32-.54-.62-.82-.88-.28-.26-.59-.48-.86-.59-.07-.03-.13-.04-.19-.05h-.08s-.02,0-.03,0c0,0,0,0,0,0h-.04s-.08.02-.08.02h-.04s0,0,0,0h0s.06-.01.05,0h0s-.01,0-.01,0l-.04.02c-.06.03-.13.03-.17.08-.22.12-.4.34-.55.63-.07.15-.14.3-.2.47-.06.17-.11.35-.15.53-.04.18-.08.37-.11.56-.03.18-.05.39-.06.55l-.15,2.33-1.15-1.99c-.21-.35-.4-.72-.61-1.08-.23-.33-.43-.7-.68-1.01-.12-.16-.24-.33-.36-.48l-.39-.45c-.14-.14-.28-.27-.42-.41-.15-.12-.31-.24-.46-.35-.33-.19-.69-.34-1.07-.37-.37-.03-.78.08-1.07.29-.29.25-.58.57-.78.92-.21.35-.36.74-.45,1.13-.1.4-.14.8-.15,1.21,0,.41,0,.81.03,1.22.01.4.07.81.1,1.22.05.41.08.82.14,1.22.06.41.12.82.2,1.23.08.41.15.82.24,1.23l.27,1.24.28,1.26-.12.06Z"/>
          <path class="cls-8" d="M150.56,49.86s.27-.28.83-.67c.56-.39,1.4-.9,2.54-1.28.57-.19,1.21-.33,1.9-.4.69-.07,1.45-.05,2.21.1.76.14,1.53.4,2.24.8.73.38,1.37.89,1.98,1.43.58.57,1.11,1.18,1.56,1.83.46.64.83,1.32,1.17,1.97.16.33.32.66.46.98.14.33.25.65.38.96.26.62.41,1.24.59,1.79.17.56.27,1.08.38,1.54.12.46.16.87.22,1.2.11.67.15,1.05.15,1.05,0,0-.16-.35-.41-.98-.13-.31-.27-.69-.46-1.12-.19-.42-.38-.91-.62-1.43-.12-.26-.24-.52-.37-.8-.12-.28-.26-.56-.41-.85-.15-.29-.29-.59-.45-.88-.17-.29-.33-.59-.51-.9-.36-.6-.75-1.19-1.19-1.77-.43-.58-.91-1.12-1.43-1.62-.53-.48-1.07-.94-1.68-1.27-.15-.09-.3-.18-.46-.24-.15-.07-.31-.15-.46-.22-.32-.12-.63-.24-.95-.32-.64-.16-1.28-.26-1.9-.26-.62,0-1.21.04-1.76.14-.54.1-1.04.22-1.48.36-.43.14-.82.27-1.12.4-.62.25-.96.43-.96.43Z"/>
          <path class="cls-8" d="M165.52,50.32c-.05-.37-.04-.74.05-1.12.1-.37.32-.75.7-.97.09-.06.19-.1.29-.13l.07-.03h.02s.05-.01.05-.01h.03s.13-.02.13-.02c.08-.02.23,0,.34.02.13.01.21.06.32.09.39.15.71.4,1,.66,1.09,1.1,1.75,2.54,1.96,4.08l.03.29v.04s0,.07,0,.07v.07s0,.14,0,.14c-.02.27-.06.52-.2.76-.13.24-.33.47-.58.61-.25.14-.52.2-.77.21-1.01,0-1.73-.52-2.32-1.05-1.17-1.13-1.8-2.6-2.14-4.07-.17-.74-.25-1.49-.29-2.23,0-.1,0-.17,0-.3v-.27c0-.18,0-.36.03-.56.03-.4.1-.79.21-1.17.22-.75.61-1.51,1.26-2.03.64-.53,1.48-.74,2.26-.68.78.07,1.52.35,2.14.78.62.43,1.15.98,1.54,1.63.39.64.66,1.35.8,2.08.14.73.17,1.48.1,2.22l-.34-.27c.51-.17,1.03-.21,1.56-.09.53.11,1.01.43,1.35.85.08.11.17.21.23.32l.1.17.05.08h0s0,.02,0,.02c0,.02-.02-.04.02.05v.02s.02.04.02.04c.04.12.09.21.12.34.02.16.04.33.05.49-.03.6-.32,1.13-.7,1.53-.38.4-.87.7-1.4.86-.54.16-1.15.14-1.7-.06-.57-.18-1.01-.59-1.37-1.01-.15-.23-.32-.43-.45-.7l-.08-.16-.08-.21c-.06-.15-.1-.29-.13-.42-.24-1.09-.06-2.2.41-3.17.24-.49.55-.95.98-1.33.42-.39.96-.7,1.58-.81.61-.12,1.25,0,1.79.22.54.23.98.57,1.37.94.39.36.7.77,1.01,1.18l.41.63.37.65-1.32.63c-.12-.31-.16-.54-.22-.81-.04-.26-.09-.52-.09-.78v-.39s.02-.39.02-.39c0-.26.07-.52.13-.78.04-.26.14-.51.24-.75l.07-.18.04-.09.02-.05v-.02s.01-.01.01-.01l.03-.07.18-.3c.08-.12.22-.27.34-.4.12-.12.26-.21.39-.3.14-.08.3-.15.46-.21.17-.03.34-.08.51-.08.35,0,.71.08,1,.25.15.09.29.18.4.3.12.11.23.23.3.36.19.25.28.52.38.79.05.26.14.54.14.79.02.26.04.52.02.77-.01.25-.02.5-.07.74-.04.24-.06.49-.13.72l-.18.7-.97-.23c.07-.25.15-.42.26-.61.1-.18.24-.35.38-.51.07-.08.16-.14.24-.21.08-.07.17-.13.26-.18l.28-.15c.1-.04.2-.06.3-.09l.15-.04.08-.02h.04s0-.01,0-.01h0s.06,0,.06,0h.02c.1,0,.15-.01.29,0,.31.05.53.18.69.33.17.15.28.33.38.51.09.18.16.36.21.55.1.37.15.74.15,1.1,0,.18,0,.36-.01.54,0,.18-.04.36-.06.54-.05.35-.14.7-.24,1.04l-.18.5-.22.48-.13-.05.14-.5.1-.5c.06-.34.1-.67.11-1.01,0-.17.01-.34,0-.5-.01-.17-.02-.33-.05-.5-.02-.17-.05-.33-.09-.48-.04-.16-.09-.31-.14-.46-.06-.15-.12-.29-.2-.41-.08-.12-.17-.23-.26-.3-.09-.08-.2-.1-.23-.11,0-.01-.07,0-.1,0h-.13s-.02.01-.02.01c.02,0-.06,0,.05,0h0s0,0,0,0h0s-.02.01-.02.01l-.05.02-.1.04c-.06.03-.13.04-.19.07l-.17.11c-.06.03-.11.08-.15.13-.05.05-.1.09-.14.14-.08.11-.16.22-.21.35-.06.12-.11.27-.12.36l-.97-.23.12-.65c.05-.22.05-.43.08-.65.03-.22.03-.43.02-.64,0-.21-.02-.41-.05-.61-.01-.21-.1-.37-.14-.56-.08-.16-.14-.33-.24-.44-.04-.07-.1-.11-.15-.16-.05-.06-.1-.08-.16-.11-.1-.06-.22-.07-.32-.07-.05,0-.11.03-.17.03-.05.04-.11.06-.16.09-.05.05-.11.08-.15.13-.03.05-.06.06-.11.13l-.17.3h0s.06-.1.03-.05h0s0,.01,0,.01v.02s-.02.04-.02.04l-.02.07-.05.14c-.07.19-.14.37-.17.57-.04.19-.08.38-.08.58l-.02.3.02.3c0,.2.05.39.08.59.04.18.1.4.15.52l-1.32.63-.33-.58-.36-.55c-.26-.35-.52-.69-.82-.97-.59-.57-1.27-.95-1.91-.84-.64.09-1.26.65-1.62,1.36-.37.71-.53,1.57-.38,2.32.02.1.04.19.06.26l.03.12.07.16c.06.16.2.33.29.5.24.29.5.58.83.69.33.13.7.17,1.07.09.37-.08.73-.26,1.02-.52.29-.26.5-.59.54-.94,0-.07,0-.14,0-.22-.01-.1-.06-.22-.09-.33v-.04s-.02-.02-.02-.02c.03.09,0,.02.02.04h0s0-.01,0-.01l-.04-.07-.07-.14c-.04-.1-.11-.17-.16-.26-.23-.34-.56-.58-.95-.7-.38-.12-.85-.12-1.23,0l-.38.11.05-.38c.09-.69.1-1.4-.02-2.08-.12-.68-.36-1.35-.73-1.94-.37-.58-.86-1.1-1.44-1.45-.58-.36-1.24-.58-1.9-.58-.66,0-1.29.24-1.73.67-.46.42-.71,1.03-.84,1.67-.06.32-.09.65-.09.97,0,.15,0,.33.01.52l.02.27.03.24c.06.69.18,1.37.35,2.03.16.66.38,1.31.68,1.9.29.6.65,1.16,1.1,1.6.44.44,1.01.78,1.47.79.22,0,.35-.06.43-.21.05-.07.07-.19.09-.27v-.13s0-.07,0-.07v-.02s0,0,0,0c0-.03,0,.03,0,.02v-.03s-.02-.25-.02-.25c-.04-.66-.19-1.33-.44-1.96-.25-.63-.57-1.24-1-1.75-.22-.24-.46-.47-.73-.62-.06-.03-.14-.08-.19-.08-.03,0-.05-.02-.08-.02-.02-.01-.06-.02-.11-.02h-.14s-.03,0-.03,0h0s-.04,0,.02,0h-.01s-.05.02-.05.02c-.07.01-.15.03-.21.07-.56.24-.8,1.01-.82,1.69h-.14Z"/>
          <path class="cls-8" d="M172.01,30.33c-.05-.34-.05-.69.04-1.04.09-.34.3-.71.65-.91.08-.06.17-.09.27-.13l.07-.03h.02s.05-.01.05-.01h.03s.12-.02.12-.02c.07-.02.22,0,.32.01.12.01.2.05.3.08.37.14.67.37.93.62,1.02,1.03,1.63,2.36,1.83,3.8l.03.27v.03s0,.06,0,.06v.06s0,.13,0,.13c-.02.26-.06.49-.19.72-.12.23-.31.45-.55.58-.23.13-.49.19-.73.2-.95,0-1.63-.48-2.18-.99-1.09-1.05-1.68-2.43-2-3.8-.16-.69-.23-1.39-.27-2.08,0-.1,0-.15,0-.28v-.25c0-.17.01-.33.03-.52.03-.38.09-.73.19-1.09.2-.7.57-1.41,1.18-1.89.6-.49,1.39-.69,2.12-.63.73.07,1.42.33,1.99.73.58.4,1.07.91,1.43,1.51.36.59.62,1.25.74,1.93.13.68.16,1.38.1,2.06l-.34-.27c.48-.16.96-.2,1.45-.09.49.11.95.4,1.26.79.07.1.16.19.22.3l.09.16.05.08h0s0,.01,0,.01c0,.02-.02-.04.02.05v.02s.02.04.02.04c.04.11.08.19.11.32.02.15.04.31.05.46-.02.57-.3,1.06-.65,1.44-.36.38-.81.65-1.32.81-.51.15-1.08.13-1.6-.05-.54-.17-.95-.56-1.29-.95-.14-.22-.3-.41-.42-.66l-.07-.15-.08-.2c-.05-.14-.09-.27-.12-.39-.23-1.02-.06-2.06.38-2.97.22-.46.52-.89.92-1.25.39-.36.91-.66,1.49-.77.58-.12,1.19,0,1.69.21.51.21.92.54,1.28.88.37.34.66.72.94,1.1l.39.59.35.6-1.32.63c-.11-.29-.15-.51-.21-.76-.03-.24-.08-.49-.08-.73v-.37s.02-.37.02-.37c0-.25.07-.49.12-.73.04-.25.13-.48.23-.71l.07-.17.03-.09.02-.04v-.02s.01-.01.01-.01l.03-.07.17-.27c.08-.11.21-.26.32-.38.12-.11.25-.2.37-.29.14-.08.29-.14.44-.2.16-.03.32-.08.49-.08.33,0,.68.07.95.24.14.08.28.17.38.28.11.11.22.22.29.34.18.24.26.49.36.74.05.25.13.5.13.74.02.24.04.49.02.72-.01.24-.02.47-.07.69-.04.23-.06.46-.12.67l-.17.65-.97-.23c.07-.24.14-.39.25-.57.1-.17.22-.33.36-.48.15-.13.29-.28.48-.37l.27-.14c.09-.04.19-.06.28-.08l.14-.04.07-.02h.04s0-.01,0-.01h0s.06,0,.06,0h.02c.09,0,.14,0,.27,0,.3.05.5.17.66.32.16.15.27.32.36.48.09.17.15.34.2.51.18.69.16,1.37.07,2.03-.05.33-.13.65-.22.97l-.17.46-.2.45-.13-.05.13-.46.09-.47c.05-.31.09-.62.1-.94,0-.16,0-.31,0-.47-.01-.15-.02-.31-.05-.46-.02-.15-.05-.3-.09-.45-.03-.15-.08-.29-.13-.42-.05-.13-.11-.26-.19-.37-.07-.11-.15-.21-.24-.27-.08-.07-.18-.09-.2-.1,0-.01-.06,0-.09,0h-.12s-.02.01-.02.01c.02,0-.06,0,.05,0h0s0,0,0,0h0s-.02.01-.02.01l-.05.02-.09.03c-.06.02-.12.04-.18.07l-.15.1c-.05.03-.1.07-.14.12-.04.04-.09.08-.13.13-.07.1-.14.2-.19.32-.05.1-.1.25-.11.32l-.97-.23.1-.6c.05-.2.05-.4.07-.6.03-.2.02-.39.02-.58,0-.2-.02-.38-.05-.56-.01-.19-.09-.34-.12-.51-.07-.14-.13-.3-.22-.4-.04-.07-.09-.1-.13-.14-.04-.05-.09-.07-.14-.09-.09-.06-.18-.06-.27-.06-.05,0-.09.03-.14.03-.05.03-.09.05-.14.08-.04.04-.1.08-.13.11-.03.05-.05.05-.09.11l-.16.28h0s.06-.1.03-.05h0s0,.01,0,.01v.02s-.02.03-.02.03l-.02.06-.04.13c-.06.17-.13.34-.15.52-.03.18-.08.35-.07.53l-.02.27.02.27c0,.18.05.36.07.54.04.17.09.37.14.48l-1.32.63-.31-.54-.33-.51c-.24-.32-.48-.64-.75-.89-.54-.53-1.16-.86-1.72-.76-.57.08-1.14.58-1.47,1.23-.34.65-.48,1.43-.35,2.12.01.09.03.17.05.24l.03.11.06.15c.06.15.18.3.26.46.22.27.45.53.75.63.3.12.63.15.97.09.34-.07.67-.24.93-.47.26-.23.46-.54.5-.85,0-.06,0-.12,0-.19-.01-.09-.06-.21-.08-.31v-.04s-.02-.02-.02-.02c.03.09,0,.02.02.04h0s0-.01,0-.01l-.03-.06-.06-.13c-.04-.09-.1-.16-.15-.24-.21-.31-.51-.54-.87-.64-.35-.11-.78-.11-1.13-.01l-.38.11.05-.37c.08-.64.09-1.29-.02-1.93-.11-.63-.33-1.25-.67-1.79-.34-.54-.79-1.01-1.33-1.34-.53-.33-1.15-.54-1.76-.53-.6,0-1.18.22-1.59.62-.41.39-.65.95-.76,1.53-.06.29-.08.6-.08.89,0,.14,0,.31.01.48l.02.25.03.22c.06.64.17,1.27.32,1.88.15.61.35,1.2.63,1.75.27.55.6,1.06,1.01,1.47.4.4.93.71,1.33.72.2,0,.29-.05.37-.17.05-.06.06-.16.08-.23v-.13s0-.06,0-.06v-.02s0,0,0,0c0-.03,0,.03,0,.02v-.03s-.02-.23-.02-.23c-.03-.61-.17-1.22-.4-1.81-.23-.58-.53-1.15-.92-1.62-.2-.22-.42-.44-.66-.57-.06-.02-.13-.07-.18-.08-.06,0-.08-.05-.17-.04h-.13s-.03,0-.03,0h0s-.04,0,.02,0h-.01s-.05.01-.05.01c-.07.01-.13.03-.19.06-.51.21-.74.92-.76,1.56h-.14Z"/>
          <path class="cls-8" d="M229.4,39.34s-.21.04-.52.1c-.15.04-.33.08-.51.15-.18.07-.35.15-.49.27-.15.11-.26.25-.4.43l-.03.03-.02.02s.03-.07.02-.03h0s0,0,0,0h0s-.07.12-.07.12l-.08.1-.05.07c-.07.08-.15.21-.2.34-.11.27-.09.63.12.87.2.25.55.3.81.18.07-.02.13-.05.19-.1.06-.03.12-.08.18-.13.06-.05.12-.08.17-.14l.08-.07.04-.04.02-.02h.01s.04-.03-.03.01h0s0,0,0,0c.32-.3.37-.43.51-.68.1-.23.17-.46.23-.68.06-.22.08-.44.07-.64,0-.21-.05-.37-.1-.54-.07-.15-.15-.29-.25-.39-.05-.05-.1-.1-.14-.14-.05-.03-.09-.06-.13-.09-.08-.05-.12-.08-.12-.08v-.14s.06-.01.16-.04c.05-.01.11-.02.19-.03.08,0,.16,0,.27.02.2.03.45.12.7.3.23.19.46.46.6.81.13.34.23.74.18,1.16-.04.42-.18.85-.44,1.22-.23.35-.69.75-.97.89h0s0,0,0,0c-.07.05-.02.02-.04.03h-.02s-.04.03-.04.03l-.08.04-.16.07c-.1.05-.22.07-.34.1-.11.03-.23.04-.36.04-.12,0-.24,0-.36-.02-.48-.07-.9-.33-1.16-.67-.26-.34-.44-.72-.53-1.15-.04-.21-.06-.43-.03-.67.02-.13.04-.22.05-.29l.03-.12h0s0-.02,0-.02h0s.02-.05.02-.05l.02-.04.04-.07c.18-.38.52-.67.87-.83.35-.16.69-.19.97-.16.28.03.5.11.67.19.17.08.29.17.37.23.08.07.11.11.11.11l-.05.13Z"/>
          <path class="cls-8" d="M197.81,37.04s.15.04.38.16c.12.06.26.14.41.25.14.11.32.23.48.39.17.15.34.33.5.54.17.2.32.44.47.69.13.26.28.53.36.82.05.15.1.29.14.45l.08.47c.06.31.04.63.05.94,0,.31-.07.61-.12.9-.07.28-.17.55-.26.79-.08.25-.23.46-.34.65-.11.2-.22.37-.35.51-.11.14-.23.26-.32.35-.18.19-.29.29-.29.29,0,0,.01-.16.05-.41.02-.13.04-.28.08-.44.04-.16.05-.36.08-.56.02-.2.08-.41.08-.64.02-.22.03-.46.05-.7-.01-.24,0-.48,0-.73-.04-.24-.01-.5-.08-.74l-.05-.37c-.03-.12-.06-.24-.08-.36-.04-.24-.13-.47-.2-.71-.08-.22-.15-.45-.24-.66-.09-.21-.17-.41-.26-.59-.17-.37-.33-.69-.45-.91-.12-.23-.19-.36-.19-.36Z"/>
          <path class="cls-8" d="M210.06,35.4s.14.06.35.22c.11.08.23.18.37.3.13.13.29.27.42.45.15.17.29.38.42.61.14.23.25.48.36.75.09.28.2.56.24.87.02.15.06.31.07.46l.02.47c.02.32-.05.63-.09.94-.05.3-.16.59-.25.87-.11.27-.25.51-.37.75-.12.23-.29.42-.43.6-.14.18-.27.33-.42.45-.13.12-.26.22-.36.3-.21.16-.33.24-.33.24,0,0,.03-.15.11-.4.04-.12.08-.27.14-.43.07-.16.1-.35.16-.55.05-.2.14-.4.18-.62.05-.22.1-.45.15-.68.02-.24.08-.48.1-.72,0-.25.06-.49.03-.74v-.37c-.01-.12-.02-.25-.03-.37,0-.25-.06-.49-.09-.73-.05-.23-.09-.47-.14-.69-.05-.22-.11-.43-.17-.63-.11-.39-.23-.73-.31-.97-.09-.24-.14-.38-.14-.38Z"/>
          <path class="cls-8" d="M179.64,39s.11.1.33.26c.22.16.56.39,1,.62.44.23,1,.46,1.63.56.32.04.66.06,1,0,.12,0,.17-.04.22-.06l.09-.03.09-.05c.06-.03.11-.07.15-.11.05-.03.08-.1.12-.14.15-.2.21-.56.19-.94-.03-.39-.13-.81-.29-1.22-.08-.21-.18-.41-.29-.6v-.02s.02.03,0,.02h0s-.03-.05-.03-.05l-.06-.08s0-.02-.03-.03c-.04-.04-.08-.06-.13-.08-.1-.03-.27-.03-.45.07-.18.09-.36.24-.52.43-.64.77-.91,1.94-.89,3.07,0,1.15.28,2.3.67,3.39.19.55.41,1.09.66,1.61.23.49.5,1.01.81,1.35.15.18.32.27.36.27.01,0,.01-.01.02,0,0-.02,0,0,.02-.02.02-.02.07-.05.12-.11.23-.25.43-.75.53-1.21.11-.47.17-.97.17-1.43,0-.45-.09-.91-.22-1.12-.01-.04-.03-.04-.04-.06v-.02s-.01,0-.01,0c.02.01-.04-.04.04.03h0s-.07-.07-.07-.07l-.06-.06s0,0,0,0c.01,0,0,0,.01,0,.01,0,.07,0,.08-.02.02-.02-.01,0-.05.02-.08.07-.17.22-.24.39-.07.17-.13.35-.17.54-.18.76-.15,1.54-.06,2.2.1.67.28,1.24.48,1.7.2.46.41.79.57,1.02.16.22.25.34.25.34l-.09.1s-.12-.09-.35-.27c-.22-.19-.53-.48-.85-.92-.32-.44-.65-1.03-.88-1.77-.23-.74-.38-1.61-.27-2.61.03-.25.08-.51.17-.78.09-.27.2-.55.44-.84.13-.14.28-.3.53-.4.23-.11.55-.13.8-.06.12.03.24.07.35.14.06.03.11.07.17.1l.08.06.07.06h0c.08.08.03.04.05.06l.03.03.05.06c.07.08.14.16.19.24.42.66.46,1.28.48,1.89,0,.61-.08,1.21-.26,1.81-.08.3-.2.6-.35.9-.14.3-.33.6-.63.88-.14.14-.34.28-.58.38-.11.05-.26.07-.4.09-.14,0-.29,0-.41-.04-.52-.15-.81-.47-1.01-.75-.43-.58-.63-1.15-.83-1.76-.18-.59-.31-1.18-.42-1.77-.22-1.19-.36-2.39-.36-3.59.02-1.18.11-2.39.71-3.49.16-.27.36-.53.63-.75.27-.21.64-.38,1.08-.35.21.03.43.09.61.21.09.05.19.14.27.22l.07.07.03.04h0s.03.05.03.05l.02.02c.17.24.33.49.45.75.25.52.4,1.07.42,1.64.01.56-.07,1.18-.47,1.69-.1.12-.2.24-.33.33-.12.1-.25.18-.39.23l-.2.09c-.07.02-.14.04-.22.05-.15.03-.3.06-.38.05-.47.04-.9-.06-1.29-.17-.77-.23-1.34-.62-1.75-.97-.42-.35-.69-.68-.86-.9-.17-.23-.25-.36-.25-.36l.1-.09Z"/>
          <path class="cls-8" d="M203.76,45.05c-.24-.29-.46-.63-.63-.99-.17-.36-.3-.74-.38-1.13-.09-.39-.13-.79-.14-1.2-.01-.41.03-.81.1-1.21.07-.4.18-.8.34-1.19.16-.39.35-.77.65-1.13.15-.18.34-.35.59-.5.24-.14.64-.25,1.02-.11.37.14.59.41.7.63l.02.04v.02s.04.06.04.06h0s.02.08.02.08l.05.14c.03.14.07.31.07.42.02.48-.09.89-.23,1.28-.14.38-.32.74-.52,1.08-.19.34-.42.67-.66.97-.25.3-.51.6-.86.84-.18.11-.37.22-.61.24-.23.03-.51-.03-.7-.18-.39-.3-.55-.71-.68-1.08-.14-.38-.22-.77-.29-1.16-.07-.39-.12-.77-.15-1.16h0s0-.05,0-.05c.01-.34.04-.66.08-.98.05-.32.1-.64.18-.96.07-.32.16-.63.27-.95.1-.31.22-.63.38-.94.15-.31.32-.61.53-.9.2-.29.46-.57.76-.81l.11-.09h0s.04-.03.04-.03h.01s.02-.02.02-.02l.05-.03.1-.06.17-.09c.23-.11.44-.16.69-.2.48-.04.98.1,1.34.34.72.49,1.07,1.18,1.3,1.84.23.66.3,1.34.31,2,0,.33-.03.66-.07.98-.04.32-.11.64-.19.95-.08.31-.18.61-.29.91-.12.3-.24.59-.39.87l-.13-.04c.08-.62.15-1.23.16-1.83.01-.6-.02-1.19-.11-1.77-.09-.57-.25-1.12-.47-1.61-.22-.48-.55-.91-.88-1.09-.16-.09-.3-.11-.43-.1-.06.01-.15.03-.2.06-.01,0-.02,0-.04.01l-.09.06-.05.03-.02.02h-.01s.04-.02.03-.01h0s0,0,0,0l-.07.06c-.19.14-.36.32-.52.52-.17.2-.31.43-.45.67-.27.48-.49,1.02-.67,1.58-.09.28-.17.56-.24.85-.07.28-.14.58-.19.85v-.05c-.02.36-.05.73-.05,1.09,0,.36.02.72.08,1.07.06.34.17.69.37.87.1.1.21.13.35.13.14,0,.29-.08.43-.16.28-.18.53-.45.74-.75.2-.3.37-.62.5-.96.13-.34.22-.69.27-1.03.05-.34.05-.69-.02-.95-.01-.08-.04-.09-.04-.13l-.06-.12-.03-.06h0s.04.08.02.04h0s0,0,0,0v-.02c-.09-.1-.15-.12-.13-.1.02.01.02,0-.06.06-.07.05-.17.13-.26.24-.19.22-.36.5-.5.8-.14.3-.25.63-.35.96-.19.67-.28,1.37-.27,2.07,0,.35.04.71.1,1.07.07.36.15.71.27,1.08l-.12.06Z"/>
          <path class="cls-8" d="M195.16,12.73s0-.05.03-.13c.02-.08.06-.22.13-.37.14-.31.4-.75.94-1.11.27-.18.62-.36,1.1-.33.47.01.99.36,1.2.72.1.12.26.45.32.64l.09.31c.02.1.04.21.05.31.06.42.07.83.02,1.24-.01.1-.02.21-.05.31l-.03.16v.04s-.01.02-.01.02l-.02.06-.02.07c-.06.17-.11.34-.17.51-.16.37-.36.78-.58,1.07-.2.32-.47.58-.7.83-.26.22-.5.44-.76.59-.25.16-.48.3-.7.38-.22.09-.4.17-.57.2-.33.08-.51.11-.51.11,0,0,.14-.14.38-.34.13-.09.25-.25.41-.4.16-.14.31-.34.48-.54.09-.09.17-.2.24-.32.08-.11.16-.23.25-.34.14-.25.32-.5.44-.78.16-.28.23-.54.35-.83.05-.17.1-.35.14-.52l.02-.07h0s-.02.08-.01.04h0s0-.02,0-.02v-.03s.02-.11.02-.11c.02-.07.02-.15.03-.23.04-.31.04-.63.02-.93,0-.15-.03-.29-.06-.42,0-.08-.03-.1-.03-.15-.01-.04,0-.08-.06-.17-.11-.25-.2-.31-.35-.38-.15-.06-.39-.05-.61.01-.45.13-.83.38-1.07.58-.12.1-.22.18-.28.25-.06.06-.1.1-.1.1Z"/>
          <path class="cls-8" d="M210.84,30.51s-.27-.27-.75-.64c-.24-.18-.55-.38-.89-.51-.17-.07-.35-.08-.51-.1-.17.02-.33.03-.49.13l-.06.03s-.04.02,0,0l-.04.03-.18.11c-.12.08-.17.13-.26.19-.17.15-.31.31-.44.49-.11.19-.21.4-.27.66-.05.26-.07.56-.04.87.06.63.31,1.3.69,1.88.18.29.41.58.63.87.23.27.45.58.68.89.43.62.84,1.28,1.09,2,.24.73.43,1.48.43,2.25.01.19.01.38-.02.57-.02.19-.04.38-.07.56-.11.36-.18.73-.36,1.04-.16.32-.32.63-.54.89-.1.13-.21.26-.31.38-.12.11-.23.21-.34.32-.11.1-.23.2-.34.29-.11.09-.24.15-.35.23-.23.14-.44.28-.66.38-.22.09-.42.17-.61.25-.19.07-.36.14-.52.17-.65.15-1.01.2-1.01.2l-.05-.13s.3-.23.83-.57c.27-.16.54-.43.88-.67.16-.13.3-.31.48-.46.08-.08.17-.15.25-.24.07-.09.14-.19.22-.28.08-.09.15-.19.23-.28.06-.11.12-.22.19-.33.06-.11.14-.21.19-.33.05-.12.09-.24.15-.36.03-.06.06-.12.08-.18l.05-.2c.04-.13.07-.26.11-.4.02-.14.04-.28.06-.42l.04-.21v-.22c.07-.59-.03-1.24-.16-1.89-.15-.65-.34-1.32-.58-1.98-.13-.32-.27-.65-.45-.97l-.27-.47c-.09-.16-.2-.3-.29-.46-.37-.63-.76-1.23-1.04-1.92-.15-.34-.24-.72-.28-1.11-.01-.39.04-.81.22-1.18.36-.73,1.04-1.17,1.63-1.37.33-.13.71-.14,1.04-.09.32.07.6.19.82.34.44.29.7.64.89.92.19.29.29.53.36.7.06.17.09.26.09.26l-.12.07Z"/>
          <path class="cls-8" d="M213.5,44.16c-.17-.45-.3-.91-.39-1.38-.09-.47-.15-.95-.16-1.44,0-.25,0-.49.02-.75.01-.25.07-.51.13-.76.08-.26.15-.52.3-.77.07-.13.14-.25.25-.37.1-.11.19-.24.33-.33l.2-.14.1-.07h.01s0-.01,0-.01h0s.05-.03.05-.03h.02s.04-.03.04-.03l.16-.07c.06-.02.09-.05.19-.07.36-.1.71-.13,1.06-.03.35.08.64.31.86.55.2.25.35.51.44.78.09.27.15.54.16.8.02.27.01.53-.02.79-.03.26-.09.51-.16.75-.04.12-.08.24-.12.36l-.16.35-.3-.37,2.62-.3c.44-.04.87-.11,1.31-.14.44-.03.88-.1,1.33-.1.45,0,.9-.06,1.35,0,.44.03.99.11,1.18.08.02,0,.03,0,.04-.01,0,0,.03,0,.02-.01,0,0,0,0,0-.02.02-.03.04-.18.05-.34,0-.34-.05-.75-.11-1.16-.14-.82-.31-1.68-.43-2.56-.12-.87-.19-1.77-.19-2.67,0-.45.03-.9.07-1.35.05-.45.12-.9.23-1.34.05-.22.11-.44.19-.66.06-.22.15-.43.24-.64.17-.42.4-.81.64-1.18l.12.06c-.11.43-.2.84-.26,1.27-.06.42-.1.84-.11,1.26-.02.42,0,.84.01,1.26.02.42.06.84.11,1.26.09.84.24,1.67.39,2.52.15.85.3,1.7.39,2.6.04.45.08.92.03,1.45-.05.28-.08.57-.3.91-.12.17-.27.33-.47.42-.1.06-.19.08-.29.1-.1.02-.19.04-.28.04-.09,0-.19,0-.28,0l-.16-.03-.35-.07-.61-.14c-.4-.11-.83-.15-1.25-.23-.42-.08-.85-.09-1.28-.12-.43-.04-.86,0-1.29,0-.43.03-.86.06-1.29.12-.43.06-.85.15-1.26.26l-.44.11.14-.48c.06-.21.11-.42.13-.63.02-.21.02-.43,0-.64-.02-.21-.05-.42-.11-.61-.06-.19-.13-.38-.22-.54-.09-.16-.19-.29-.3-.4-.12-.08-.21-.15-.32-.17-.1-.04-.23,0-.32,0-.01-.01-.09.03-.14.04l-.16.06-.04.02h-.02s.06-.02.05-.01h0s0,0,0,0h0s-.04.04-.04.04l-.09.06c-.07.02-.11.1-.17.15-.06.05-.1.12-.15.2-.11.13-.18.32-.26.5-.07.19-.13.39-.17.6-.06.21-.09.43-.13.64-.03.22-.06.44-.08.67-.03.23-.03.45-.05.68-.03.46-.04.93-.06,1.4l-.13.02Z"/>
          <path class="cls-8" d="M217.19,38.13s-.05-.19-.06-.54c0-.18,0-.39.05-.64.05-.25.12-.55.35-.84.2-.29.59-.58,1.06-.65.46-.06.89.05,1.28.2l.08.03s.01,0,.05.02h.03s.12.07.12.07l.25.12c.17.08.35.18.52.27.32.18.64.37.97.55.31.19.62.33.91.46.3.1.58.21.87.23.29.04.57.02.86-.02.14,0,.28-.06.42-.09.14-.02.27-.07.4-.11.26-.08.49-.17.7-.27.21-.09.4-.16.55-.24.3-.14.49-.22.49-.22,0,0-.11.16-.33.43-.11.14-.24.3-.42.46-.09.08-.18.17-.28.27-.11.09-.23.17-.35.26-.24.19-.55.35-.89.49-.35.13-.75.23-1.17.24-.11,0-.21,0-.32,0l-.32-.04c-.22-.02-.42-.09-.63-.15-.4-.14-.79-.32-1.13-.52-.35-.2-.67-.4-.98-.61-.15-.1-.3-.19-.44-.29l-.23-.14-.11-.07-.03-.02s0,0-.01,0l-.05-.02c-.25-.15-.49-.25-.69-.27-.19-.02-.37.02-.55.15-.17.12-.32.32-.44.5-.11.18-.21.36-.27.51-.14.3-.2.49-.2.49Z"/>
          <g>
            <path class="cls-5" d="M180.69,24.71c.02-.16.02-.24.03-.32.03-.21-.03-.31-.24-.34-.25-.04-.5-.09-.76-.13-.66-.1-1.09-.51-1.4-1.06-.32-.56-.37-1.16-.28-1.79.05-.35.17-.66.31-.97.02-.04.03-.08.06-.11.3-.36.62-.71,1.08-.88.16-.06.31-.13.47-.18.64-.2,1.3-.21,1.95-.08.88.18,1.61.61,2.05,1.43.26.5.33,1.03.27,1.59-.08.69-.39,1.23-.94,1.64-.42.31-.9.48-1.42.55-.16.02-.32.06-.47.11-.06.02-.1.08-.15.13-.1.1-.2.21-.31.31-.05.04-.13.05-.26.1Z"/>
            <path class="cls-5" d="M227.9,37.73c-.01-.13-.03-.23-.03-.33,0-1.04.02-2.09.02-3.13,0-.32-.01-.64-.03-.96,0-.08-.04-.16-.09-.23-.09-.15-.06-.29.08-.36.11-.06.28,0,.31.15.03.16.13.19.25.24.31.13.61.27.92.41.36.16.72.31,1.07.47.08.04.17.08.25.12.14.08.14.15,0,.23-.18.1-.37.19-.55.28-.58.29-1.15.59-1.74.86-.37.17-.3.15-.31.51,0,.5,0,1,0,1.5,0,.09.02.19-.15.25Z"/>
            <path class="cls-5" d="M174.25,41.39c-.13-.16-.24-.29-.34-.42-.17-.24-.23-.5-.13-.78.11-.31.37-.53.65-.54.3,0,.59.22.73.49.22.43.03.78-.19,1.12.69.39,2.18.71,3.26.19-.34-.1-.64-.18-.94-.27,0-.04-.01-.07-.02-.11.08-.05.18-.16.25-.14.53.12,1.06.26,1.58.39.01,0,.02.02.03.03,0,.03.02.09,0,.11-.44.38-.89.75-1.35,1.14-.06-.06-.11-.12-.17-.18.13-.15.25-.28.38-.44-.39.02-.74.03-1.09.05-.72.04-1.4-.15-2.05-.41-.17-.07-.28-.03-.43.04-1.22.53-2.42.55-3.58-.18-.13-.08-.34-.15-.22-.34.12-.21.26-.02.39.05.72.42,1.47.66,2.31.45.2-.05.41-.08.61-.13.11-.03.21-.08.33-.14ZM174.6,41.13c.29-.19.33-.48.28-.79-.03-.19-.28-.35-.48-.32-.2.03-.28.16-.29.36-.03.37.1.57.49.75Z"/>
            <path class="cls-5" d="M149.51,29.06c-.02-.09-.08-.19-.07-.29.03-.84.27-1.64.65-2.38.46-.88,1.08-1.65,1.92-2.2.29-.19.62-.33.92-.5.09-.05.19-.12.25-.21.58-.81,1.28-1.5,2.16-2.02-.13-.14-.26-.24-.34-.38-.04-.07.02-.2.04-.3.08.02.2.02.25.07.18.21.41.23.65.19.26-.05.53-.09.79-.13q.2-.03.35.18c-.27.3-.57.58-.82.89-.28.35-.26.47-.02.83-.11.2-.26.18-.41.05-.2-.18-.18-.4-.11-.63.03-.11.09-.21.14-.31.05-.1.11-.2.16-.29-.72.07-2.06,1.15-2.44,1.96.12.13.27.25.37.39.21.31.14.67-.16.85-.25.16-.59.04-.77-.29-.08-.15-.13-.31-.2-.47-1.21.64-2.08,1.6-2.62,2.87-.25.58-.44,1.19-.46,1.83,0,.14-.01.29-.27.28ZM153.6,24.54c.1-.38.1-.38-.19-.52q-.13.33.19.52Z"/>
            <path class="cls-5" d="M163.51,61.21c-.43.13-.77.24-1.11.34-.16.04-.39.14-.45-.06-.08-.24.21-.25.34-.29.58-.2,1.17-.37,1.76-.54.08-.02.19.02.27.07.03.02.03.14,0,.19-.31.66-.62,1.32-.93,1.97-.02.05-.08.08-.13.12-.19-.08-.24-.17-.15-.37.13-.27.23-.55.35-.86-.36.24-.65.48-.99.66-.43.22-.87.43-1.33.56-.49.14-.96-.09-1.4-.29-.5-.23-.88-.63-1.17-1.1-.26-.42-.57-.75-1.07-.93-.69-.25-1.29-.08-1.89.24-.46.25-.81.62-1.12,1.04-.06.08-.11.18-.19.23-.06.04-.17.05-.22.02-.04-.03-.06-.17-.03-.22.24-.32.47-.65.75-.93.71-.71,1.59-.95,2.56-.8.63.1,1.09.48,1.42,1.02.32.53.71.97,1.3,1.19.51.19,1.03.2,1.55,0,.69-.27,1.26-.71,1.88-1.27Z"/>
            <path class="cls-5" d="M213.35.51c.22.05.44.11.67.14.26.03.53.05.79.04.07,0,.18-.11.19-.17,0-.06-.09-.18-.16-.2-.24-.06-.49-.08-.74-.12-.44-.06-.88-.12-1.32-.17-.11-.01-.23-.03-.35-.03-.3.01-.38.14-.24.42.19.37.4.72.58,1.09.15.29.27.6.41.9.04.07.13.11.2.17.05-.09.16-.21.13-.27-.15-.41-.34-.82-.51-1.22-.02-.04-.04-.08-.08-.17.91.37,1.61.95,2.24,1.62.99,1.04,1.6,2.29,1.89,3.69.03.17.08.29.37.22-.02-.26,0-.54-.07-.8-.54-1.89-1.58-3.42-3.22-4.54-.14-.09-.27-.19-.41-.28-.14-.09-.28-.16-.42-.25l.03-.07Z"/>
            <g>
              <path class="cls-5" d="M149.02,51.96s.11.05.16.08c.65.44,1.29.88,1.93,1.33.11.08.29.18.17.34-.11.15-.26.04-.38-.05-.62-.44-1.25-.87-1.87-1.31-.06-.04-.13-.09-.17-.15-.06-.1.03-.24.16-.25Z"/>
              <path class="cls-5" d="M153.23,52.24s-.12.13-.2.21c-.07-.08-.18-.14-.2-.23-.06-.35-.1-.71-.14-1.06-.05-.39-.12-.77-.16-1.16,0-.08.05-.2.11-.24.12-.07.19.03.21.14.06.27.13.54.17.82.07.44.12.88.17,1.33,0,.04.01.09.03.2Z"/>
              <path class="cls-5" d="M149.11,54.19c.4.08.76.14,1.11.21.15.03.31.06.45.11.06.02.09.13.13.2-.08.04-.17.12-.24.11-.46-.07-.92-.17-1.39-.25-.12-.02-.24-.07-.21-.21.01-.07.11-.13.15-.18Z"/>
              <path class="cls-5" d="M153.99,52.34c.04-.13.06-.23.09-.32.08-.29.15-.58.22-.87,0-.03,0-.07.02-.1.06-.11.08-.3.26-.24.16.05.13.19.09.34-.1.34-.17.69-.26,1.03-.02.08-.04.16-.09.21-.05.06-.14.13-.21.12-.06-.01-.09-.12-.13-.18Z"/>
              <path class="cls-5" d="M152.14,52.78c-.05.05-.08.13-.13.14-.06.01-.16,0-.2-.05-.17-.23-.33-.47-.48-.72-.03-.05-.03-.17,0-.2.05-.04.15-.05.21-.02.07.03.12.1.16.16.12.17.23.35.34.53.03.05.05.1.08.15Z"/>
              <path class="cls-5" d="M150.43,50.49s.11.03.14.07c.16.21.31.43.47.64.08.1.07.2-.03.25-.06.03-.18,0-.22-.04-.18-.21-.35-.43-.5-.66-.09-.14-.03-.26.15-.27Z"/>
              <path class="cls-5" d="M154.87,49.67c.05.09.14.17.13.24-.02.15-.08.3-.15.44-.02.04-.12.09-.16.08-.06-.03-.16-.12-.15-.16.04-.17.11-.34.18-.5.01-.03.07-.05.15-.1Z"/>
              <path class="cls-5" d="M147.93,53.92c.16.02.27.01.35.06.06.03.1.14.1.22,0,.04-.11.11-.17.11-.1,0-.21,0-.29-.05-.07-.04-.12-.14-.17-.21.07-.05.15-.1.19-.12Z"/>
            </g>
            <g>
              <path class="cls-5" d="M163.15,15.89s.11.05.16.08c.64.44,1.29.88,1.93,1.33.11.08.29.18.17.34-.11.15-.26.04-.38-.05-.62-.44-1.25-.87-1.87-1.31-.06-.04-.13-.09-.17-.15-.06-.1.03-.24.16-.25Z"/>
              <path class="cls-5" d="M167.36,16.16s-.12.13-.2.21c-.07-.08-.18-.14-.2-.23-.06-.35-.1-.71-.14-1.06-.05-.39-.12-.77-.16-1.16,0-.08.05-.2.11-.24.12-.07.19.03.21.14.06.27.13.54.17.82.07.44.12.88.17,1.33,0,.04.01.09.03.2Z"/>
              <path class="cls-5" d="M163.24,18.12c.4.08.76.14,1.11.21.15.03.31.06.45.11.06.02.09.13.13.2-.08.04-.17.12-.24.11-.46-.07-.92-.17-1.39-.25-.12-.02-.24-.07-.21-.21.01-.07.11-.13.15-.18Z"/>
              <path class="cls-5" d="M168.12,16.26c.04-.13.06-.23.09-.32.08-.29.15-.58.22-.87,0-.03,0-.07.02-.1.06-.11.08-.3.26-.24.16.05.13.19.09.34-.1.34-.17.69-.26,1.03-.02.08-.04.16-.09.21-.05.06-.14.13-.21.12-.06-.01-.09-.12-.13-.18Z"/>
              <path class="cls-5" d="M166.27,16.7c-.05.05-.08.13-.13.14-.06.01-.16,0-.2-.05-.17-.23-.33-.47-.48-.72-.03-.05-.03-.17,0-.2.05-.04.15-.05.21-.02.07.03.12.1.16.16.12.17.23.35.34.53.03.05.05.1.08.15Z"/>
              <path class="cls-5" d="M164.56,14.42s.11.03.14.07c.16.21.31.43.47.64.08.1.07.2-.04.25-.06.03-.18,0-.22-.04-.18-.21-.35-.43-.5-.66-.09-.14-.03-.26.15-.27Z"/>
              <path class="cls-5" d="M169,13.6c.05.09.14.17.13.24-.02.15-.08.3-.15.44-.02.04-.12.09-.16.08-.06-.03-.16-.12-.15-.16.04-.17.11-.34.18-.5.01-.03.07-.05.15-.1Z"/>
              <path class="cls-5" d="M162.06,17.84c.16.02.27.01.35.06.06.03.1.14.1.22,0,.04-.11.11-.17.11-.1,0-.21,0-.29-.05-.07-.04-.12-.14-.17-.21.07-.05.15-.1.19-.12Z"/>
            </g>
            <g>
              <path class="cls-5" d="M211.29,31.87c-.02-.63.39-.71.86-.61.09.02.17.08.25.13.22.13.27.13.41-.07.29-.4.42-.45.76-.32.31.13.46.44.41.83-.07.52-.33.95-.58,1.38-.3.52-.31.52-.82.15-.3-.22-.6-.44-.88-.68-.26-.22-.46-.49-.42-.83Z"/>
              <path class="cls-5" d="M215.18,32.33c.25.03.42.04.6.08.05.01.13.08.13.13,0,.05-.07.14-.11.14-.21,0-.43-.02-.64-.05-.06-.01-.15-.14-.13-.17.03-.07.12-.11.15-.13Z"/>
              <path class="cls-5" d="M209.34,33.14c.24-.3.6-.08.84-.26.02-.01.12.08.18.13-.25.26-.62.31-1.02.13Z"/>
              <path class="cls-5" d="M214.63,33.43c.4-.05.77.13.85.4-.32.07-.71-.1-.85-.4Z"/>
              <path class="cls-5" d="M215.58,30.73c0,.09.04.21,0,.25-.13.13-.29.24-.46.35-.04.03-.15.02-.18-.02-.03-.04-.02-.15,0-.18.17-.15.35-.29.53-.43.04,0,.07.02.11.03Z"/>
              <path class="cls-5" d="M210.85,33.65c.06.07.15.14.13.17-.09.23-.1.5-.35.67-.05-.05-.13-.1-.13-.14.04-.26.13-.5.35-.71Z"/>
              <path class="cls-5" d="M210.45,32.07c-.05.02-.12.07-.16.05-.22-.07-.44-.16-.66-.24.02-.07.03-.17.08-.19.12-.06.62.15.67.27,0,.01,0,.02,0,.03.02.02.05.05.07.07Z"/>
            </g>
            <g>
              <path class="cls-5" d="M148.66,44.29c.07-.05.13-.12.21-.15.16-.05.32-.09.48-.12.5-.11.65-.48.69-.92.02-.27,0-.54-.03-.81-.02-.22-.04-.44.09-.63.2-.02.22.1.22.24,0,.22-.02.44.01.66.04.25.09.51.19.74.1.23.29.39.58.37.12,0,.26,0,.37.06.19.09.2.27.01.34-.65.23-.72.79-.79,1.35-.04.32-.02.64-.03.97,0,.08,0,.16-.04.22-.03.05-.12.1-.18.1-.04,0-.1-.07-.12-.12-.03-.07-.03-.15-.03-.23.04-.49-.13-.94-.25-1.4-.1-.4-.33-.55-.73-.55-.2,0-.41,0-.61,0-.02-.04-.04-.08-.06-.12Z"/>
              <path class="cls-5" d="M150.78,47.83c-.09.07-.14.12-.19.16-.06-.07-.12-.14-.17-.21.05-.04.12-.13.16-.12.07.02.12.1.21.17Z"/>
              <path class="cls-5" d="M150.39,40.34c-.1.09-.17.19-.22.18-.06,0-.14-.1-.16-.16-.01-.03.08-.15.13-.15.07,0,.14.07.25.13Z"/>
              <path class="cls-5" d="M153.06,43.76c-.08.07-.14.17-.18.16-.07-.01-.14-.08-.18-.14-.01-.03.08-.15.12-.15.07,0,.14.08.24.14Z"/>
              <path class="cls-5" d="M148.2,44.37c-.11.05-.18.11-.22.09-.05-.02-.12-.11-.11-.17,0-.05.12-.13.14-.12.07.03.11.11.19.2Z"/>
            </g>
            <g>
              <path class="cls-5" d="M220.79,25.18c.07-.05.13-.12.21-.15.16-.05.32-.09.48-.12.5-.11.65-.48.69-.92.02-.27,0-.54-.03-.81-.02-.22-.04-.44.09-.63.2-.02.22.1.22.24,0,.22-.02.44.01.66.04.25.09.51.19.74.1.23.29.39.58.37.12,0,.26,0,.37.06.19.09.2.27.01.34-.65.23-.72.79-.79,1.35-.04.32-.02.64-.03.97,0,.08,0,.16-.04.22-.03.05-.12.1-.18.1-.04,0-.1-.07-.12-.12-.03-.07-.03-.15-.03-.23.04-.49-.13-.94-.25-1.4-.1-.4-.33-.55-.73-.55-.2,0-.41,0-.61,0l-.06-.12Z"/>
              <path class="cls-5" d="M222.91,28.71c-.09.07-.14.12-.19.16-.06-.07-.12-.14-.17-.21.05-.04.12-.13.16-.12.07.02.12.1.21.17Z"/>
              <path class="cls-5" d="M222.52,21.23c-.1.09-.17.19-.22.18-.06,0-.14-.1-.16-.16-.01-.03.08-.15.13-.15.07,0,.14.07.25.13Z"/>
              <path class="cls-5" d="M225.18,24.64c-.08.07-.14.17-.18.16-.07-.01-.14-.08-.18-.14-.01-.03.08-.15.12-.15.07,0,.14.08.24.14Z"/>
              <path class="cls-5" d="M220.33,25.26c-.11.05-.18.11-.22.09-.05-.02-.12-.11-.11-.17,0-.05.12-.13.14-.12.07.03.11.11.19.2Z"/>
            </g>
          </g>
        </g>
      </g>
      <g>
        <g>
          <g>
            <polygon class="cls-7" points="15.38 43.29 21.04 46.56 15.38 49.83 9.72 46.56 15.38 43.29"/>
            <polygon class="cls-7" points="8.95 49.22 15.38 52.93 21.8 49.22 21.8 57.01 15.38 58.39 8.95 57.02 8.95 49.22"/>
            <path class="cls-4" d="M15.38,39.37l-8.88,5.13v12.59l8.88,2.8,8.88-2.8v-12.59l-8.88-5.13ZM15.38,42.21l5.66,3.27-5.66,3.27-5.66-3.27,5.66-3.27ZM8.95,47.88l6.42,3.71,6.42-3.71v7.79l-6.42,1.9-6.42-1.9v-7.79Z"/>
          </g>
          <path class="cls-4" d="M15.38,30.8c-.53,1.67-1.35,3.18-3.24,4.27l-6.68,3.85c-2.81,1.62-4.86,3.29-4.86,7.53v7.95h0v.83l14.78,4.65,14.78-4.65v-.83h0v-7.95c0-4.24-2.05-5.91-4.86-7.53l-6.68-3.85c-1.89-1.09-2.71-2.6-3.24-4.27ZM15.38,35.3c.65.96,1.55,1.63,2.74,2.32l6.12,3.53c2.63,1.52,3.46,2.76,3.46,5.26v7.41l-12.32,3.74-12.32-3.74v-7.41c0-2.51.83-3.74,3.46-5.26l6.12-3.53c1.19-.69,2.09-1.35,2.74-2.32Z"/>
          <g>
            <path class="cls-7" d="M2.31,66.87v1.92h-.44v-.79h-.6v.79h-.44v-1.92h.44v.75h.6v-.75h.44Z"/>
            <path class="cls-7" d="M3.64,66.87l.6,1.92h-.48l-.12-.4h-.62l-.12.4h-.39l.62-1.92h.52ZM3.12,68.04h.41l-.2-.67-.21.67Z"/>
            <path class="cls-7" d="M5.18,66.87v1.37c0,.2-.05.34-.14.44-.09.1-.25.14-.46.14-.09,0-.2,0-.3-.03v-.37c.09.01.17.02.23.02.06,0,.1-.01.13-.03.03-.02.06-.04.07-.07.01-.03.02-.08.02-.15v-1.31h.45Z"/>
            <path class="cls-7" d="M6.28,66.87v1.37c0,.2-.05.34-.14.44-.09.1-.25.14-.46.14-.09,0-.2,0-.3-.03v-.37c.09.01.17.02.23.02.06,0,.1-.01.13-.03.03-.02.06-.04.07-.07.01-.03.02-.08.02-.15v-1.31h.45Z"/>
            <path class="cls-7" d="M8.79,66.87l-.58,1.92h-.48l-.58-1.92h.48l.38,1.37.4-1.37h.38Z"/>
            <path class="cls-7" d="M9.65,68.82c-.26,0-.46-.1-.6-.29-.14-.19-.21-.43-.21-.7s.07-.51.22-.7c.14-.19.35-.28.61-.28s.47.1.61.3c.14.2.2.43.2.69,0,.28-.07.51-.21.7-.14.19-.35.29-.62.29ZM9.66,67.21c-.24,0-.35.21-.35.62s.12.62.35.62.34-.21.34-.62-.11-.62-.34-.62Z"/>
            <path class="cls-7" d="M11.22,68.41h.76v.38h-1.22v-1.92h.46v1.54Z"/>
            <path class="cls-7" d="M13.71,66.87v1.2c0,.19-.02.34-.07.43-.04.09-.13.17-.24.23-.12.06-.27.09-.46.09s-.33-.03-.44-.08c-.11-.05-.19-.13-.25-.23-.05-.1-.08-.25-.08-.44v-1.2h.49v1.2c0,.1,0,.18.03.23.02.05.05.09.1.12.05.03.12.04.19.04.08,0,.15-.01.21-.04.05-.03.09-.07.11-.11.02-.05.03-.12.03-.23v-1.2h.39Z"/>
            <path class="cls-7" d="M15.55,66.87v1.92h-.38l-.75-1.3s0,.05,0,.06c0,.03,0,.06,0,.08v1.15h-.35v-1.92h.48l.65,1.13c0-.06,0-.1,0-.13v-1h.35Z"/>
            <path class="cls-7" d="M17.15,66.87v.38h-.48v1.54h-.46v-1.54h-.48v-.38h1.41Z"/>
            <path class="cls-7" d="M18.71,67.24h-.91v.39h.72v.36h-.72v.42h.91v.38h-1.37v-1.92h1.37v.37Z"/>
            <path class="cls-7" d="M20.36,67.24h-.91v.39h.72v.36h-.72v.42h.91v.38h-1.37v-1.92h1.37v.37Z"/>
            <path class="cls-7" d="M21.08,68.03v.76h-.45v-1.92h.84c.16,0,.28.02.37.05s.17.1.23.2c.06.1.09.2.09.32,0,.23-.11.4-.33.5l.35.85h-.5l-.29-.76h-.32ZM21.08,67.21v.49h.28c.09,0,.16,0,.2-.02.04-.01.08-.04.11-.08.03-.04.05-.09.05-.15,0-.05-.02-.1-.05-.14-.03-.04-.07-.07-.1-.08-.04,0-.11-.01-.21-.01h-.27Z"/>
            <path class="cls-7" d="M24.79,67.59l-.47.03c0-.27-.11-.41-.32-.41-.23,0-.35.21-.35.63,0,.24.03.4.1.49.06.09.15.13.27.13.19,0,.3-.12.34-.36l.44.03c-.03.23-.11.4-.26.52-.14.12-.32.18-.53.18-.25,0-.46-.09-.62-.26-.16-.18-.24-.42-.24-.73,0-.29.08-.53.23-.71.15-.18.36-.28.63-.28.46,0,.72.25.78.74Z"/>
            <path class="cls-7" d="M25.77,68.82c-.26,0-.46-.1-.6-.29-.14-.19-.21-.43-.21-.7s.07-.51.22-.7c.14-.19.35-.28.61-.28s.47.1.61.3c.14.2.2.43.2.69,0,.28-.07.51-.21.7-.14.19-.35.29-.62.29ZM25.78,67.21c-.24,0-.35.21-.35.62s.12.62.35.62.34-.21.34-.62-.11-.62-.34-.62Z"/>
            <path class="cls-7" d="M27.34,68.03v.76h-.45v-1.92h.84c.16,0,.28.02.37.05.09.04.17.1.23.2.06.1.09.2.09.32,0,.23-.11.4-.33.5l.35.85h-.5l-.29-.76h-.32ZM27.34,67.21v.49h.28c.09,0,.16,0,.2-.02s.08-.04.11-.08c.03-.04.05-.09.05-.15,0-.05-.02-.1-.05-.14-.03-.04-.07-.07-.1-.08-.04,0-.11-.01-.21-.01h-.27Z"/>
            <path class="cls-7" d="M30.16,67.24h-.91v.39h.72v.36h-.72v.42h.91v.38h-1.37v-1.92h1.37v.37Z"/>
          </g>
          <g>
            <path class="cls-4" d="M7.67,62.62h.75v-3.37l1.43.45v6.35h-1.43v-2.1H2.26v2.1H.83v-9.19l1.43.45v5.32h5.41Z"/>
            <path class="cls-4" d="M15.37,64.57l2.92-4.09,2.01-.59-4.2,6.15h-1.45l-4.17-6.15,1.99.59,2.9,4.09Z"/>
            <path class="cls-4" d="M22.71,60.88c-.23.15-.35.32-.36.53v2.37c0,.2.11.38.34.54.23.15.52.23.86.23h6.51v1.51h-7.34c-.5,0-.93-.14-1.28-.41-.35-.27-.53-.6-.53-.98v-4.09c0-.38.17-.71.53-.98l8.72-2.73v1.75l-7.45,2.26Z"/>
          </g>
        </g>
        <rect class="cls-8" x="37.44" y="31.03" width=".12" height="37.65"/>
        <g>
          <path class="cls-6" d="M7.6,20.32H1.07v2.26c0,.87.37,1.62,1.11,2.25.66.57,1.5.93,2.48,1.05l-.27.46c-2.92-.39-4.39-1.85-4.39-4.37v-2.51h6.62v-1.85c0-1.28-.91-1.93-2.71-1.93-1.64,0-2.46.62-2.46,1.85h-.62c0-1.64,1.39-2.71,3.41-2.71.98,0,1.8.23,2.43.7.62.46.95,1.07.95,1.82v2.98ZM5.05,22.72c0,.52-.27.78-.78.78s-.77-.27-.77-.8.25-.78.77-.78c.43,0,.78.36.78.8Z"/>
          <path class="cls-6" d="M20.23,22.38h-8.08c-1.52,0-2.28-.82-2.28-2.46v-6.6l-.29-2.12,1.36-.32v8.72c0,1.28.55,1.93,1.64,1.93h7.66v.86Z"/>
          <path class="cls-6" d="M30.84,22.38H13.2v-.86l15.41-.02c-.32-1.16-.95-2.43-1.87-3.83-1.12-1.69-2.16-2.55-3.08-2.55-.64,0-1.16.53-1.16,1.44,0,.3.07.66.2,1.03l-1.02.14c.16-2.09,1.25-3.35,2.62-3.35,1.16,0,2.35.93,3.62,2.76,1.02,1.5,1.73,2.94,2.12,4.35h.8v.87ZM25.78,25.56c0,.52-.25.78-.77.78s-.78-.27-.78-.78.27-.8.78-.8c.41,0,.77.36.77.8Z"/>
          <path class="cls-6" d="M45.3,22.38h-14.83v-.86l12.61-.02c-.32-1.16-.95-2.43-1.87-3.83-1.12-1.69-2.16-2.55-3.08-2.55-.64,0-1.16.53-1.16,1.44,0,.3.07.66.2,1.03l-1.02.14c.16-2.09,1.25-3.35,2.62-3.35,1.16,0,2.35.93,3.62,2.76,1.02,1.5,1.73,2.94,2.12,4.35h.8v.87Z"/>
          <path class="cls-6" d="M50.14,19.92c0,1.55-.87,2.46-2.3,2.46h-2.98v-.86h2.55c1.12,0,1.68-.64,1.68-1.93v-6.21l-.29-2.19,1.34-.34v9.06Z"/>
          <path class="cls-6" d="M53.56,10.87l-.16,2.12v9.4h-1.07v-9.4l-.25-2,1.48-.12Z"/>
          <path class="cls-6" d="M69.49,22.38h-4.02c-.55,0-1.05-.14-1.5-.41-.34-.21-.57-.45-.7-.7-.59.43-1.39.66-2.41.7-1.64,0-2.71-1.28-2.71-3.48,0-1.14.36-2.05,1.05-2.75.71-.7,1.64-1.03,2.78-1.03h.95l-.09-.98c.57-.14,1.03-.25,1.41-.34v6.22c0,1.27.55,1.91,1.66,1.91h3.57v.86ZM63.15,20.73l-.09-5.44c-.48,0-.87,0-1.19.02-.7.02-1.3.29-1.82.84-.52.55-.77,1.23-.77,2.05.02,1.91.68,2.87,2.01,2.87.55,0,1.18-.11,1.85-.34ZM61.74,11.19c0,.52-.27.77-.78.77s-.8-.27-.8-.8.27-.78.8-.78c.43,0,.78.34.78.82ZM64.08,11.19c0,.52-.25.77-.77.77s-.78-.27-.78-.8.27-.78.78-.78c.41,0,.77.34.77.82Z"/>
          <path class="cls-6" d="M78.46,22.38h-12.26v-.86l10.69-.02c-.32-1.18-.95-2.46-1.87-3.83-1.12-1.69-2.14-2.55-3.07-2.55-.66,0-1.18.53-1.18,1.44,0,.3.07.66.2,1.03l-1,.14c.16-2.09,1.25-3.35,2.6-3.35,1.23,0,2.51,1.05,3.89,3.16,1.25,1.89,1.91,3.49,2,4.83Z"/>
          <path class="cls-6" d="M81.89,10.87l-.16,2.12v9.4h-1.07v-9.4l-.25-2,1.48-.12Z"/>
          <path class="cls-6" d="M85.78,21.71c0,2.44-1.12,3.98-3.35,4.6l-.29-.48c.91-.34,1.59-.89,2.05-1.66.34-.59.5-1.19.5-1.85v-4.9l-.29-2.25,1.37-.34v6.88Z"/>
          <path class="cls-6" d="M94.75,22.38h-1.53c-1.52,0-2.28-.82-2.28-2.46v-6.6l-.29-2.12,1.36-.32v8.72c0,1.28.55,1.93,1.64,1.93h1.11v.86Z"/>
          <path class="cls-6" d="M100.67,22.38h-1.12c-.77,0-1.36-.25-1.78-.75-.41.5-.96.75-1.68.75h-1.94v-.86h1.44c1.11,0,1.66-.64,1.66-1.93v-2.19l-.29-2.25,1.37-.34v4.8c0,1.27.53,1.91,1.62,1.91h.71v.86ZM98.47,11.67c0,.5-.27.75-.78.75s-.78-.25-.78-.77.27-.78.78-.78c.43,0,.78.36.78.8Z"/>
          <path class="cls-6" d="M113.86,17.94c0,1.69-.3,2.87-.93,3.53-.57.61-1.57.91-2.98.91h-9.73v-.86h9.98c1.78,0,2.5-.57,2.51-1.98-.41.16-.93.23-1.57.23-1.77,0-2.66-.89-2.66-2.67,0-.94.32-1.66.96-2.14.46-.36,1.03-.53,1.69-.53.87,0,1.57.25,2.05.75.45.48.66,1.09.66,1.85v.91ZM112.8,17.09c0-1.41-.53-2.12-1.6-2.12s-1.66.75-1.66,2.26c0,1.32.52,1.98,1.53,1.98.7,0,1.25-.12,1.66-.37.05-.2.07-.77.07-1.75ZM112.04,11.67c0,.5-.27.75-.82.75-.52,0-.77-.25-.77-.77s.25-.78.77-.78c.48,0,.82.36.82.8Z"/>
          <path class="cls-6" d="M127.26,22.38h-11.69l.2-.86h4.73l.04-.34v-2.91c0-1.73-.66-2.85-1.59-2.85-.25,0-.5.07-.73.2l.11-1.03c.96,0,1.75.37,2.35,1.12.61.73.91,1.69.93,2.89v2.92h5.66v.86Z"/>
          <path class="cls-6" d="M137.05,22.38h-13.49v-.86h5.72c-.18-.41-.25-.87-.21-1.41.04-1.14.39-2.03,1.05-2.69.57-.57,1.25-.86,2.05-.86.59,0,1.09.18,1.48.52.43.39.64.91.64,1.53l-.04,2.91h1.71v-3.37c0-.86-.36-1.5-1.09-1.94-.62-.39-1.44-.59-2.48-.59s-1.96.18-2.8.55l.14-.78c.87-.37,1.87-.55,3.03-.55s2.18.21,2.92.66c.91.53,1.36,1.32,1.36,2.34v4.55ZM133.36,21.53v-3.03c0-.91-.43-1.36-1.27-1.36-.55,0-1.02.23-1.39.68-.48.52-.71,1.19-.71,2.03,0,1.27.41,1.68,1.6,1.68h1.77Z"/>
        </g>
        <g>
          <path class="cls-4" d="M55.08,30.96v9.99h-2.83v-3.9h-3.85v3.9h-2.83v-9.99h2.83v3.76h3.85v-3.76h2.83Z"/>
          <path class="cls-4" d="M63.77,39.01h-4.23l-.79,1.94h-2.88l4.41-9.99h2.78l4.43,9.99h-2.94l-.79-1.94ZM62.95,36.92l-1.28-3.2-1.29,3.2h2.57Z"/>
          <path class="cls-4" d="M67.23,39.68l1.54-1.83c.53.69,1.09,1.04,1.73,1.04.81,0,1.26-.5,1.26-1.46v-4.3h-3.46v-2.18h6.25v6.31c0,2.6-1.34,3.88-3.85,3.88-1.46,0-2.7-.51-3.47-1.47Z"/>
          <path class="cls-4" d="M75.18,39.68l1.54-1.83c.53.69,1.09,1.04,1.73,1.04.81,0,1.26-.5,1.26-1.46v-4.3h-3.46v-2.18h6.25v6.31c0,2.6-1.34,3.88-3.85,3.88-1.46,0-2.7-.51-3.47-1.47Z"/>
          <path class="cls-4" d="M55.71,45.08l-4.28,9.99h-2.78l-4.27-9.99h3.06l2.71,6.51,2.77-6.51h2.8Z"/>
          <path class="cls-4" d="M55.65,50.07c0-3,2.36-5.2,5.55-5.2s5.55,2.2,5.55,5.2-2.36,5.2-5.55,5.2-5.55-2.2-5.55-5.2ZM63.9,50.07c0-1.73-1.18-2.86-2.7-2.86s-2.7,1.13-2.7,2.86,1.19,2.86,2.7,2.86,2.7-1.13,2.7-2.86Z"/>
          <path class="cls-4" d="M68.24,45.08h2.83v7.75h4.77v2.24h-7.6v-9.99Z"/>
          <path class="cls-4" d="M76.77,50.62v-5.54h2.83v5.45c0,1.71.71,2.4,1.9,2.4s1.88-.69,1.88-2.4v-5.45h2.78v5.54c0,2.98-1.74,4.65-4.7,4.65s-4.7-1.67-4.7-4.65Z"/>
          <path class="cls-4" d="M97.59,45.08v9.99h-2.33l-4.41-5.33v5.33h-2.77v-9.99h2.33l4.41,5.33v-5.33h2.77Z"/>
          <path class="cls-4" d="M101.71,47.32h-3.07v-2.24h8.95v2.24h-3.06v7.75h-2.83v-7.75Z"/>
          <path class="cls-4" d="M116.68,52.89v2.18h-8.02v-9.99h7.84v2.18h-5.04v1.68h4.44v2.11h-4.44v1.83h5.23Z"/>
          <path class="cls-4" d="M126.27,52.89v2.18h-8.02v-9.99h7.84v2.18h-5.04v1.68h4.44v2.11h-4.44v1.83h5.23Z"/>
          <path class="cls-4" d="M132.21,52.42h-1.54v2.66h-2.83v-9.99h4.57c2.73,0,4.44,1.41,4.44,3.7,0,1.47-.71,2.56-1.96,3.16l2.16,3.14h-3.03l-1.81-2.66ZM132.24,47.3h-1.57v2.93h1.57c1.17,0,1.76-.54,1.76-1.46s-.59-1.47-1.76-1.47Z"/>
          <path class="cls-4" d="M45.06,64.2c0-3.04,2.33-5.2,5.5-5.2,1.84,0,3.33.67,4.3,1.88l-1.8,1.63c-.63-.76-1.4-1.17-2.36-1.17-1.64,0-2.78,1.14-2.78,2.86s1.14,2.86,2.78,2.86c.96,0,1.73-.41,2.36-1.17l1.8,1.63c-.97,1.21-2.46,1.88-4.3,1.88-3.17,0-5.5-2.16-5.5-5.2Z"/>
          <path class="cls-4" d="M55.38,64.2c0-3,2.36-5.2,5.55-5.2s5.55,2.2,5.55,5.2-2.36,5.2-5.55,5.2-5.55-2.2-5.55-5.2ZM63.63,64.2c0-1.73-1.18-2.86-2.7-2.86s-2.7,1.13-2.7,2.86,1.19,2.86,2.7,2.86,2.7-1.13,2.7-2.86Z"/>
          <path class="cls-4" d="M72.34,66.54h-1.54v2.66h-2.83v-9.99h4.57c2.73,0,4.44,1.41,4.44,3.7,0,1.47-.71,2.56-1.96,3.16l2.16,3.14h-3.03l-1.81-2.66ZM72.37,61.43h-1.57v2.93h1.57c1.17,0,1.76-.54,1.76-1.46s-.59-1.47-1.76-1.47Z"/>
          <path class="cls-4" d="M86.56,67.01v2.18h-8.02v-9.99h7.84v2.18h-5.04v1.69h4.44v2.11h-4.44v1.83h5.23Z"/>
          <path class="cls-7" d="M99.5,66.95v2.24h-7.78v-1.77l3.74-3.5c.8-.74.91-1.2.91-1.61,0-.64-.43-1.03-1.28-1.03-.73,0-1.38.33-1.78.97l-2.1-1.17c.76-1.26,2.17-2.08,4.14-2.08,2.3,0,3.88,1.19,3.88,3.04,0,.97-.27,1.86-1.7,3.17l-1.88,1.74h3.85Z"/>
          <path class="cls-7" d="M100.31,64.2c0-3.3,1.86-5.2,4.41-5.2s4.4,1.9,4.4,5.2-1.86,5.2-4.4,5.2-4.41-1.9-4.41-5.2ZM106.28,64.2c0-2.1-.66-2.88-1.56-2.88s-1.57.79-1.57,2.88.66,2.88,1.57,2.88,1.56-.79,1.56-2.88Z"/>
          <path class="cls-7" d="M117.7,66.95v2.24h-7.78v-1.77l3.74-3.5c.8-.74.91-1.2.91-1.61,0-.64-.43-1.03-1.28-1.03-.73,0-1.38.33-1.78.97l-2.1-1.17c.76-1.26,2.17-2.08,4.14-2.08,2.3,0,3.88,1.19,3.88,3.04,0,.97-.27,1.86-1.7,3.17l-1.88,1.74h3.85Z"/>
          <path class="cls-7" d="M126.39,65.98c0,1.78-1.34,3.41-4.35,3.41-1.38,0-2.86-.34-3.87-.99l1.01-2.13c.81.54,1.81.83,2.77.83s1.6-.39,1.6-1.06c0-.61-.41-1.01-1.94-1.01h-2.71l.5-5.84h6.37v2.18h-4.03l-.13,1.46h.67c2.96,0,4.11,1.37,4.11,3.14Z"/>
        </g>
      </g>
    </g>
  </g>
</svg>