<svg width="23" height="22" viewBox="0 0 23 22" fill="none" xmlns="http://www.w3.org/2000/svg">
<path d="M11.4398 0.383179H11.3906C5.43682 0.383179 0.610352 5.21107 0.610352 11.1666V11.2158C0.610352 17.1713 5.43682 21.9992 11.3906 21.9992H11.4398C17.3935 21.9992 22.22 17.1713 22.22 11.2158V11.1666C22.22 5.21107 17.3935 0.383179 11.4398 0.383179Z" fill="#1D174F"/>
<path d="M14.7589 4.78091H8.07229C6.22499 4.78091 4.72217 6.28418 4.72217 8.13203V14.2511C4.72217 16.099 6.22499 17.6022 8.07229 17.6022H14.7589C16.6062 17.6022 18.109 16.099 18.109 14.2511V8.13203C18.109 6.28418 16.6062 4.78091 14.7589 4.78091ZM5.90399 8.13203C5.90399 6.93623 6.87685 5.96308 8.07229 5.96308H14.7589C15.9544 5.96308 16.9272 6.93623 16.9272 8.13203V14.2511C16.9272 15.4469 15.9544 16.4201 14.7589 16.4201H8.07229C6.87685 16.4201 5.90399 15.4469 5.90399 14.2511V8.13203Z" fill="white"/>
<path d="M11.4155 14.3079C13.1333 14.3079 14.5317 12.9099 14.5317 11.1908C14.5317 9.4717 13.1341 8.0737 11.4155 8.0737C9.69691 8.0737 8.29932 9.4717 8.29932 11.1908C8.29932 12.9099 9.69691 14.3079 11.4155 14.3079ZM11.4155 9.25662C12.4822 9.25662 13.3499 10.1245 13.3499 11.1916C13.3499 12.2586 12.4822 13.1265 11.4155 13.1265C10.3488 13.1265 9.48114 12.2586 9.48114 11.1916C9.48114 10.1245 10.3488 9.25662 11.4155 9.25662Z" fill="white"/>
<path d="M14.8201 8.57731C15.2827 8.57731 15.6597 8.20092 15.6597 7.73745C15.6597 7.27397 15.2834 6.89758 14.8201 6.89758C14.3567 6.89758 13.9805 7.27397 13.9805 7.73745C13.9805 8.20092 14.3567 8.57731 14.8201 8.57731Z" fill="white"/>
</svg>
