<?xml version="1.0" encoding="UTF-8"?>
<svg id="Layer_2" data-name="Layer 2" xmlns="http://www.w3.org/2000/svg" viewBox="0 0 492.31 92.08">
  <defs>
    <style>
      .cls-1 {
        fill: #818235;
      }

      .cls-2 {
        fill: #a7a9ac;
      }

      .cls-3 {
        fill: #342519;
      }

      .cls-4 {
        fill: #009bdf;
      }

      .cls-5 {
        fill: #247c8d;
      }

      .cls-6 {
        fill: #1d174f;
      }
    </style>
  </defs>
  <g id="Layer_1-2" data-name="Layer 1">
    <g>
      <rect class="cls-3" x="240.26" y="15.87" width=".36" height="59.97"/>
      <g>
        <g>
          <rect class="cls-5" x="9.12" y="4.38" width="21.13" height="21.13" transform="translate(-4.8 18.3) rotate(-45)"/>
          <rect class="cls-5" x="9.12" y="34.26" width="21.13" height="21.13" transform="translate(-25.93 27.05) rotate(-45)"/>
          <rect class="cls-5" x="94.67" y="26.54" width="6.68" height="6.68" transform="translate(7.58 78.06) rotate(-45)"/>
          <rect class="cls-5" x="1.38" y="26.54" width="6.68" height="6.68" transform="translate(-19.75 12.09) rotate(-45)"/>
          <polygon class="cls-1" points="51.42 29.88 66.32 14.99 51.42 .09 21.63 29.88 51.42 59.67 66.32 44.78 51.42 29.88"/>
          <polygon class="cls-5" points="83.16 29.88 98.05 14.99 83.16 .09 53.37 29.88 83.16 59.67 98.05 44.78 83.16 29.88"/>
        </g>
        <g>
          <path class="cls-2" d="M4.48,85.58l3.51-.34c.21,1.18.64,2.04,1.28,2.59.65.55,1.52.83,2.61.83,1.16,0,2.04-.25,2.62-.74.59-.49.88-1.07.88-1.72,0-.42-.12-.78-.37-1.08-.25-.3-.68-.55-1.3-.77-.42-.15-1.38-.41-2.89-.78-1.93-.48-3.29-1.07-4.07-1.77-1.1-.98-1.64-2.18-1.64-3.59,0-.91.26-1.76.77-2.55.52-.79,1.26-1.39,2.23-1.81s2.14-.62,3.51-.62c2.24,0,3.93.49,5.06,1.47s1.73,2.29,1.78,3.93l-3.6.16c-.15-.92-.49-1.58-.99-1.98-.51-.4-1.27-.6-2.28-.6s-1.87.22-2.46.65c-.38.28-.57.65-.57,1.11,0,.42.18.78.54,1.08.45.38,1.56.78,3.31,1.19s3.05.84,3.89,1.28c.84.44,1.5,1.05,1.97,1.81.47.77.71,1.72.71,2.84,0,1.02-.28,1.98-.85,2.87-.57.89-1.37,1.56-2.41,1.99s-2.33.65-3.88.65c-2.26,0-3.99-.52-5.2-1.56-1.21-1.04-1.93-2.56-2.17-4.56Z"/>
          <path class="cls-2" d="M38.13,91.39h-3.92l-1.56-4.06h-7.14l-1.47,4.06h-3.82l6.95-17.85h3.81l7.15,17.85ZM31.49,84.33l-2.46-6.62-2.41,6.62h4.87Z"/>
          <path class="cls-2" d="M40.01,73.54h3.6v9.67c0,1.53.04,2.53.13,2.98.15.73.52,1.32,1.1,1.76.58.44,1.37.66,2.38.66s1.79-.21,2.31-.63c.52-.42.83-.93.94-1.54.11-.61.16-1.62.16-3.03v-9.88h3.6v9.38c0,2.14-.1,3.66-.29,4.54-.19.89-.55,1.63-1.08,2.24-.52.61-1.22,1.09-2.1,1.46-.88.36-2.02.54-3.43.54-1.7,0-3-.2-3.88-.59-.88-.39-1.58-.91-2.09-1.53-.51-.63-.85-1.29-1.01-1.98-.24-1.02-.35-2.53-.35-4.53v-9.52Z"/>
          <path class="cls-2" d="M58.04,73.54h6.59c1.49,0,2.62.11,3.4.34,1.05.31,1.94.86,2.69,1.64s1.32,1.75,1.7,2.89c.39,1.14.58,2.55.58,4.22,0,1.47-.18,2.74-.55,3.8-.45,1.3-1.08,2.35-1.91,3.15-.63.61-1.47,1.08-2.53,1.42-.8.25-1.86.38-3.19.38h-6.78v-17.85ZM61.64,76.56v11.82h2.69c1.01,0,1.73-.06,2.18-.17.58-.15,1.07-.39,1.46-.74.39-.35.7-.92.94-1.72.24-.8.37-1.89.37-3.27s-.12-2.44-.37-3.18c-.24-.74-.58-1.32-1.02-1.73-.44-.41-.99-.69-1.67-.84-.5-.11-1.49-.17-2.96-.17h-1.62Z"/>
          <path class="cls-2" d="M75.95,91.39v-17.85h3.6v17.85h-3.6Z"/>
          <path class="cls-2" d="M89.95,91.39v-17.85h3.51l7.31,11.92v-11.92h3.35v17.85h-3.62l-7.2-11.64v11.64h-3.35Z"/>
          <path class="cls-2" d="M124.03,91.39h-3.92l-1.56-4.06h-7.14l-1.47,4.06h-3.82l6.95-17.85h3.81l7.15,17.85ZM117.39,84.33l-2.46-6.62-2.41,6.62h4.87Z"/>
          <path class="cls-2" d="M128.11,91.39v-14.83h-5.3v-3.02h14.19v3.02h-5.28v14.83h-3.6Z"/>
          <path class="cls-2" d="M139.21,91.39v-17.85h3.6v17.85h-3.6Z"/>
          <path class="cls-2" d="M145.52,82.57c0-1.82.27-3.34.82-4.58.41-.91.96-1.73,1.66-2.45.7-.72,1.47-1.26,2.31-1.61,1.11-.47,2.39-.71,3.85-.71,2.63,0,4.74.82,6.31,2.45,1.58,1.63,2.37,3.9,2.37,6.81s-.78,5.14-2.35,6.76c-1.57,1.63-3.66,2.44-6.28,2.44s-4.77-.81-6.33-2.43c-1.57-1.62-2.35-3.85-2.35-6.69ZM149.23,82.45c0,2.02.47,3.55,1.4,4.6.93,1.04,2.12,1.56,3.56,1.56s2.62-.52,3.54-1.55c.92-1.03,1.38-2.59,1.38-4.66s-.45-3.57-1.35-4.58c-.9-1.01-2.09-1.51-3.57-1.51s-2.68.51-3.59,1.53c-.91,1.02-1.36,2.56-1.36,4.61Z"/>
          <path class="cls-2" d="M165.69,91.39v-17.85h3.51l7.31,11.92v-11.92h3.35v17.85h-3.62l-7.2-11.64v11.64h-3.35Z"/>
          <path class="cls-2" d="M199.76,91.39h-3.92l-1.56-4.06h-7.14l-1.47,4.06h-3.82l6.95-17.85h3.81l7.15,17.85ZM193.12,84.33l-2.46-6.62-2.41,6.62h4.87Z"/>
          <path class="cls-2" d="M201.77,91.39v-17.71h3.6v14.7h8.96v3.01h-12.57Z"/>
        </g>
        <path class="cls-5" d="M169.15,59.28c0-.68.01-1.35.02-2.03,0-.25,0-.5,0-.76,0-.56,0-1.13,0-1.69,0-.26,0-.51,0-.77,0-.48,0-.96,0-1.44,0-.44,0-.87,0-1.31,0-.28,0-.55,0-.83,0-.52,0-1.04,0-1.56,0-.61,0-.43.01-1.04,0-.03,0-.41,0-.41-1.22-.02-2.46-.03-3.66-.04-1.93-.02-3.92-.03-5.89-.1-.53-.02-1.06-.03-1.6-.04-2.78-.06-5.66-.13-8.39-1.11-6.79-2.45-9.89-10.68-9.4-17.4.36-4.92,2.82-9.84,6.94-12.66,3.76-2.57,8.3-2.32,12.62-2.95,2.03-.3,3.97-.75,5.53-2.17,2.2-2.01,3.5-5.13,3.71-8.07.04-.55.04-1.1.02-1.64,0,0-2.12.02-2.25.02-1.34,0-2.69-.03-4.03-.03-8.3-.03-17.67-.33-24.52,5.24-4.52,3.68-7.52,9.31-8.91,14.9-.16.62-.29,1.26-.41,1.9-.09.46-.16.93-.23,1.39-1.42,9.92.76,23.03,11.11,30.06,4.05,2.75,8.85,3.94,13.67,4.35,1.35.11,2.69.16,4.04.19,1.35.03,2.7.02,4.05,0h.04c1.35,0,2.7.03,4.05,0"/>
        <path class="cls-5" d="M175.23,30.82v14.34l-.09,14.04c7.92-.22,11.52-3.85,11.52-10.8v-12.46h12.44c5.7,0,10.12-2.61,10.25-11.27h-22.69v-1.57c-.04-1.98.04-4.09.9-5.91,1.21-2.56,3.78-3.7,6.45-3.96,3.75-.37,5.01-.16,8.78-.23,1.49-.03,2.82.09,4.61-.15,2.6-.41,5.13-1.62,6.48-3.97,1.3-2.26,1.52-5,1.55-7.55-5.32,0-10.63,0-15.95,0-4.79,0-7.3.02-11.87,1.46-3.86,1.22-7.57,3.61-9.63,7.17-1.05,1.81-1.59,3.97-1.98,6.01-.45,2.37-.62,4.78-.7,7.19-.07,2.02-.07,4.03-.07,6.05v1.6Z"/>
        <path class="cls-5" d="M109.91,8.87c-.17.82-.25,1.71-.25,2.67v47.72c8.31-.19,12.35-3.56,12.35-10.28V1.26c-4.53.1-7.78,1.15-9.81,3.17-1.1,1.23-1.9,2.75-2.29,4.44"/>
      </g>
      <g>
        <path class="cls-6" d="M348.23,23.5c0-12.05-9.77-21.82-21.82-21.82h-45.17l-3.22,18.73h50c1.67,0,3.02,1.37,3.02,3.06s-1.35,3.06-3.02,3.06h-51.05l-3.23,18.79h52.67c12.05,0,21.82-9.77,21.82-21.82Z"/>
        <path class="cls-6" d="M319.65,70.17h20.86l3.23-18.79h-45.7c1.48,10.62,10.59,18.79,21.61,18.79Z"/>
        <path class="cls-6" d="M346.69,70.17h45.41c11.02,0,20.13-8.17,21.61-18.79h-63.79l-3.23,18.79Z"/>
        <path class="cls-6" d="M416.68,70.17h45.47c11.02,0,20.13-8.17,21.61-18.79h-63.85l-3.23,18.79Z"/>
        <path class="cls-6" d="M392.1,26.52h-16.82c-1.67,0-3.02-1.37-3.02-3.06s1.35-3.06,3.02-3.06h43.78l3.22-18.73h-45.39c-12.05,0-21.82,9.77-21.82,21.82s9.77,21.82,21.82,21.82h36.83c-1.47-10.62-10.58-18.79-21.61-18.79Z"/>
        <polygon class="cls-6" points="269.49 70.06 288.64 70.06 291.91 51.38 272.7 51.38 269.49 70.06"/>
        <path class="cls-6" d="M446.88,1.67c-10.67,0-19.55,7.66-21.44,17.79l-4.43,25.8h19.16l4.27-24.85h26.27c11,0,20.1-8.14,21.6-18.73h-45.43Z"/>
        <path class="cls-4" d="M424.88,1.67l-4.27,24.9s3.34-21.1,16.15-24.9h-11.88Z"/>
        <g>
          <path class="cls-2" d="M277.03,79.37h-3.02c-1.57,0-3.04.56-4.39,1.65-1.35,1.09-2.2,2.43-2.52,3.98l-.79,3.66h1.8l.77-3.58c.23-1.08.83-2.01,1.77-2.78.95-.77,1.98-1.16,3.06-1.16h2.93l.38-1.77Z"/>
          <polygon class="cls-2" points="278.82 75.94 278.44 77.71 280.24 77.71 280.62 75.94 278.82 75.94"/>
          <polygon class="cls-2" points="276.09 88.66 277.89 88.66 279.89 79.37 278.09 79.37 276.09 88.66"/>
          <path class="cls-2" d="M283.78,81.44c.25-.21.52-.31.8-.31h8.33l.38-1.77h-8.41c-.76,0-1.48.27-2.13.8-.65.53-1.06,1.18-1.22,1.93-.16.74-.03,1.38.39,1.92.44.55,1.06.84,1.85.88h6.57c.27,0,.47.09.62.28.15.19.19.41.13.68-.06.28-.21.52-.46.73-.25.21-.52.31-.8.31h-9.02l-.38,1.76h9.11c.76,0,1.48-.27,2.13-.8.65-.53,1.06-1.17,1.22-1.92.17-.77.03-1.43-.41-1.98-.44-.55-1.06-.83-1.83-.83h-6.53c-.3-.03-.52-.14-.68-.33-.14-.17-.18-.37-.12-.62.06-.29.21-.52.46-.73Z"/>
          <path class="cls-2" d="M304.56,79.37h-7.08l-.38,1.77h7.17c.51,0,.9.17,1.18.52.28.36.37.78.26,1.28l-.13.58c-.64-.57-1.45-.85-2.42-.85h-4.78c-.82,0-1.6.29-2.31.87-.7.57-1.15,1.28-1.32,2.09-.18.83-.02,1.55.45,2.14.46.58,1.11.88,1.92.9h9.17l1.21-5.63c.22-1,.03-1.87-.54-2.58-.57-.72-1.37-1.08-2.39-1.08ZM304.86,86.9h-7.39c-.33,0-.59-.11-.77-.34-.18-.24-.24-.52-.17-.85.08-.35.26-.64.58-.89.3-.25.62-.37.97-.37h4.79c.7,0,1.24.24,1.63.73.38.48.5,1.05.37,1.73Z"/>
          <path class="cls-2" d="M310.9,86.37c-.29-.36-.37-.78-.26-1.29l1.97-9.14h-1.8l-1.95,9.05c-.22,1-.03,1.87.54,2.58.57.72,1.37,1.08,2.39,1.08h3.63l.38-1.76h-3.71c-.51,0-.9-.17-1.18-.53Z"/>
          <path class="cls-2" d="M327.67,79.37h-7.08l-.38,1.77h7.17c.51,0,.9.17,1.18.52.28.36.37.78.26,1.28l-.13.58c-.64-.57-1.45-.85-2.42-.85h-4.79c-.82,0-1.6.29-2.3.87-.71.57-1.15,1.28-1.32,2.09-.18.83-.03,1.55.45,2.14.46.58,1.11.88,1.92.9h9.17l1.21-5.63c.21-1,.03-1.87-.54-2.58-.57-.72-1.37-1.08-2.39-1.08ZM327.96,86.9h-7.39c-.33,0-.59-.11-.77-.34-.18-.24-.24-.52-.17-.85.08-.35.26-.64.58-.89.3-.25.62-.37.97-.37h4.79c.7,0,1.24.24,1.63.73.38.48.5,1.05.37,1.73Z"/>
          <path class="cls-2" d="M343.59,81.44c.25-.21.52-.31.8-.31h8.33l.38-1.77h-8.41c-.76,0-1.48.27-2.13.8-.65.53-1.06,1.18-1.22,1.93-.16.74-.03,1.38.39,1.92.44.55,1.06.84,1.85.88h6.57c.27,0,.47.09.62.28.15.19.19.41.13.68-.06.28-.21.52-.47.73-.25.21-.52.31-.8.31h-9.02l-.38,1.76h9.11c.76,0,1.48-.27,2.13-.8.65-.53,1.06-1.17,1.22-1.92.17-.77.03-1.43-.41-1.98-.44-.55-1.06-.83-1.83-.83h-6.53c-.3-.03-.52-.14-.68-.33-.14-.17-.18-.37-.12-.62.06-.29.21-.52.46-.73Z"/>
          <path class="cls-2" d="M358.44,75.94h-1.8l-1.95,9.05c-.22,1-.03,1.87.54,2.58.57.72,1.37,1.08,2.39,1.08h5.01l.38-1.76h-5.09c-.51,0-.9-.17-1.18-.53-.29-.36-.37-.78-.26-1.29l.85-3.94h6.5l.38-1.77h-6.5l.74-3.42Z"/>
          <path class="cls-2" d="M375.18,86.9h-6.76c-.51,0-.9-.17-1.18-.53-.29-.36-.37-.78-.26-1.29l1.23-5.71h-1.8l-1.21,5.63c-.22,1-.03,1.87.54,2.58.57.72,1.37,1.08,2.39,1.08h8.47l2-9.29h-1.8l-1.62,7.53Z"/>
          <path class="cls-2" d="M391.51,75.94l-1.08,5.01c-.88-1.06-2.11-1.59-3.65-1.59h-2.77c-1,0-1.94.35-2.79,1.05-.85.69-1.39,1.55-1.6,2.53l-.44,2.05c-.22,1-.03,1.87.54,2.58.57.72,1.37,1.08,2.39,1.08h8.47l2.74-12.72h-1.8ZM389.56,85l-.41,1.9h-6.76c-.51,0-.9-.17-1.18-.53-.29-.36-.37-.78-.26-1.29l.44-2.05c.11-.52.4-.97.85-1.34.46-.37.94-.56,1.46-.56h2.77c1.09,0,1.91.37,2.51,1.13.61.76.79,1.65.56,2.73Z"/>
          <path class="cls-2" d="M403.27,86.21h-6.76c-.51,0-.9-.17-1.18-.53-.28-.36-.37-.78-.26-1.29l1.08-5.04h-1.8l-1.07,4.95c-.22,1-.03,1.86.54,2.58.57.72,1.37,1.08,2.39,1.08h6.67l-.5,2.34h-6.76c-.51,0-.9-.17-1.18-.52-.28-.36-.36-.78-.26-1.29l.05-.24h-1.8l-.03.16c-.22,1-.03,1.87.54,2.58.57.72,1.37,1.08,2.39,1.08h8.47l2.74-12.72h-1.8l-1.47,6.85Z"/>
          <path class="cls-2" d="M417.23,85.08c.23-1.08.83-2.01,1.77-2.78.95-.77,1.98-1.16,3.06-1.16h6.4l.38-1.77h-6.48c-1.56,0-3.04.56-4.39,1.65-1.34,1.09-2.19,2.43-2.52,3.98l-.14.68c-.18.81-.03,1.52.43,2.1.47.58,1.12.88,1.94.88h9.17l.38-1.76h-9.25c-.32,0-.56-.11-.73-.32-.18-.23-.23-.49-.16-.81l.14-.68Z"/>
          <polygon class="cls-2" points="433.17 75.94 431.37 75.94 430.98 77.71 432.78 77.71 433.17 75.94"/>
          <polygon class="cls-2" points="430.63 79.37 428.63 88.66 430.43 88.66 432.43 79.37 430.63 79.37"/>
          <path class="cls-2" d="M439.92,79.37c-1.56,0-3.04.56-4.39,1.65-1.34,1.09-2.19,2.43-2.52,3.98l-.79,3.66h1.8l.77-3.58c.23-1.08.83-2.01,1.77-2.78.95-.77,1.98-1.16,3.06-1.16h2.93l.38-1.77h-3.02Z"/>
          <path class="cls-2" d="M445.31,81.02c-1.35,1.1-2.2,2.43-2.53,3.98l-.14.68c-.18.81-.03,1.52.43,2.1.47.58,1.12.88,1.94.88h9.17l.38-1.76h-9.25c-.32,0-.56-.11-.73-.32-.18-.23-.23-.49-.16-.81l.14-.68c.23-1.08.83-2.01,1.77-2.78.95-.77,1.98-1.16,3.07-1.16h6.4l.38-1.77h-6.48c-1.57,0-3.04.56-4.39,1.65Z"/>
          <path class="cls-2" d="M458.8,86.37c-.29-.36-.37-.78-.26-1.29l1.97-9.14h-1.8l-1.95,9.05c-.22,1-.03,1.87.54,2.58.57.72,1.37,1.08,2.39,1.08h3.63l.38-1.76h-3.71c-.51,0-.9-.17-1.18-.53Z"/>
          <path class="cls-2" d="M477.96,80.45c-.57-.72-1.37-1.08-2.39-1.08h-2.77c-1.56,0-3.04.56-4.39,1.65-1.35,1.09-2.2,2.43-2.53,3.98l-.14.68c-.18.81-.03,1.52.43,2.1.47.58,1.12.88,1.94.88h8.86l.38-1.76h-8.95c-.32,0-.56-.11-.73-.32-.18-.23-.23-.49-.16-.81l.14-.69c.01-.06.03-.12.04-.18h10.38l.4-1.86c.22-1,.03-1.87-.54-2.58ZM476.71,82.94l-.04.19h-8.06c.24-.31.52-.59.83-.84.95-.77,1.98-1.16,3.06-1.16h2.77c.51,0,.9.17,1.18.52.28.36.37.78.26,1.28Z"/>
        </g>
      </g>
    </g>
  </g>
</svg>