<svg width="22" height="22" viewBox="0 0 22 22" fill="none" xmlns="http://www.w3.org/2000/svg">
<path d="M21.7685 11.1912C21.7685 5.23903 16.9448 0.413849 10.9944 0.413849C5.04397 0.413849 0.220215 5.23903 0.220215 11.1912C0.220215 17.1433 5.04397 21.9685 10.9944 21.9685C16.9448 21.9685 21.7685 17.1433 21.7685 11.1912Z" fill="#1D174F"/>
<path d="M17.7787 8.95784C17.6939 8.13919 17.5115 7.2342 16.84 6.75861C16.3198 6.38979 15.6362 6.37616 14.998 6.37692C13.6488 6.37692 12.2989 6.37919 10.9498 6.37995C9.65213 6.38146 8.35448 6.38222 7.05682 6.38374C6.51475 6.38374 5.98781 6.34208 5.48434 6.57685C5.05205 6.7783 4.71363 7.1615 4.50997 7.58787C4.22757 8.18084 4.16852 8.85258 4.13446 9.50841C4.07162 10.7027 4.07843 11.9 4.15338 13.0935C4.20865 13.9644 4.34871 14.927 5.02176 15.4821C5.61835 15.9736 6.46023 15.9978 7.23398 15.9986C9.68998 16.0009 12.1467 16.0031 14.6035 16.0046C14.9185 16.0054 15.247 15.9993 15.568 15.9645C16.1995 15.8964 16.8013 15.7154 17.2071 15.2473C17.6167 14.7755 17.722 14.1189 17.784 13.4972C17.9355 11.9886 17.9339 10.4657 17.7787 8.95784ZM9.52949 13.3056V9.07598L13.1908 11.1904L9.52949 13.3056Z" fill="white"/>
</svg>
